<?xml version="1.0" encoding="UTF-8"?>
<svg width="16px" height="16px" viewBox="0 0 16 16" version="1.1" xmlns="http://www.w3.org/2000/svg" xmlns:xlink="http://www.w3.org/1999/xlink">
    <!-- Generator: Sketch 63.1 (92452) - https://sketch.com -->
    <title>icons/dark/social/instagram</title>
    <desc>Created with Sketch.</desc>
    <defs>
        <path d="M8.12466486,1 L8.12466486,1.00243968 L9.78769954,1.00282453 C11.6831922,1.00497975 12.0288229,1.01698737 12.94343,1.05855221 C13.8949034,1.10205975 14.4113013,1.26104525 14.7552955,1.39461747 C15.2107015,1.57149392 15.5353816,1.78293244 15.8767329,2.12448697 C16.2182874,2.4660415 16.4297259,2.79133153 16.607009,3.24673757 C16.7405812,3.59032516 16.89977,4.10672308 16.9430742,5.05819642 C16.9829072,5.93452173 16.9961849,6.28859257 16.9992447,7.98414381 L16.9992447,10.0164661 C16.9961849,11.7120174 16.9829072,12.0660882 16.9430742,12.9424135 C16.8995667,13.8938868 16.7405812,14.4102848 16.607009,14.7538723 C16.4301325,15.2092784 16.2182874,15.5335519 15.8767329,15.8749031 C15.5351783,16.2164576 15.2109048,16.4278962 14.7552955,16.6047726 C14.4117079,16.7389548 13.8949034,16.8975336 12.94343,16.9410412 C12.0671047,16.9808742 11.7130339,16.9941518 10.0167286,16.9972117 L7.98340914,16.9972117 C6.28702189,16.9941518 5.93309859,16.9808742 5.05677328,16.9410412 C4.10529994,16.897127 3.58890202,16.7381415 3.24470451,16.6045693 C2.78929847,16.4276929 2.46400844,16.2162543 2.12245391,15.8746998 C1.78089938,15.5331453 1.56946086,15.2086685 1.39217779,14.7530591 C1.25860557,14.4094715 1.09941677,13.8930736 1.05611253,12.9416003 C1.01627956,12.065275 1.00359202,11.7112041 1.000707,10.0146475 L1.000707,7.98117959 C1.00359202,6.28497266 1.01627956,5.93208206 1.05611253,5.05575674 C1.09962007,4.10428341 1.25860557,3.58788549 1.39217779,3.24389128 C1.56905424,2.78848524 1.78089938,2.46319521 2.12245391,2.12164068 C2.46400844,1.78008615 2.78929847,1.56864763 3.24470451,1.39136457 C3.58869871,1.25718243 4.10529994,1.09860354 5.05677328,1.05489269 C5.95701343,1.01423144 6.30588699,1.00203306 8.12466486,1 Z M9,3.991 C6.23249342,3.99104182 3.98860214,6.2349331 3.98860214,9.00254133 C3.98860214,11.7701496 6.23249342,14.0130243 9.00010165,14.0130243 C11.7677099,14.0130243 14.0107879,11.7701496 14.0107879,9.00254133 C14.0107879,6.3077649 11.8840205,4.10950404 9.21727308,3.99567229 L9,3.991 Z M9.00010165,5.74964104 C10.7965158,5.74964104 12.2530019,7.20592384 12.2530019,9.00254133 C12.2530019,10.7989555 10.7965158,12.2554416 9.00010165,12.2554416 C7.20348416,12.2554416 5.74720136,10.7989555 5.74720136,9.00254133 C5.74720136,7.20592384 7.20348416,5.74964104 9.00010165,5.74964104 Z M14.2092149,2.62238402 C13.5627009,2.62279063 13.0381708,3.14671089 13.0381708,3.79342812 C13.0381708,4.43994206 13.5627009,4.96447223 14.2092149,4.96447223 C14.8557288,4.96447223 15.380259,4.43994206 15.380259,3.79342812 C15.380259,3.14691419 14.8557288,2.62238402 14.2092149,2.62238402 Z" id="path-1"></path>
    </defs>
    <g id="Symbols" stroke="none" stroke-width="1" fill="none" fill-rule="evenodd">
        <g id="menu" transform="translate(-1247.000000, -97.000000)">
            <g id="Group-7" transform="translate(1210.000000, 96.000000)">
                <g id="icons/social/instagram" transform="translate(36.000000, 0.000000)">
                    <mask id="mask-2" fill="white">
                        <use xlink:href="#path-1"></use>
                    </mask>
                    <use id="Mask" fill="#212B36" fill-rule="evenodd" xlink:href="#path-1"></use>
                    <g id="color/main" mask="url(#mask-2)" fill="#212B36" fill-rule="evenodd">
                        <rect x="0" y="0" width="18" height="18" rx="4"></rect>
                    </g>
                </g>
            </g>
        </g>
    </g>
</svg>