<?xml version="1.0" encoding="UTF-8"?>
<svg width="251px" height="53px" viewBox="0 0 251 53" version="1.1" xmlns="http://www.w3.org/2000/svg" xmlns:xlink="http://www.w3.org/1999/xlink">
    <!-- Generator: Sketch 63.1 (92452) - https://sketch.com -->
    <title>Group 35</title>
    <desc>Created with Sketch.</desc>
    <g id="Symbols" stroke="none" stroke-width="1" fill="none" fill-rule="evenodd">
        <g id="menu" transform="translate(-141.000000, -78.000000)">
            <g id="Group-35" transform="translate(141.000000, 78.000000)">
                <path d="M41,36 L37.5204409,36 L37.5204409,4.97386654 C37.4838756,5.17369637 37.4414598,5.34727118 37.3961187,5.48875653 C37.3493151,5.6317005 37.303974,5.77756169 37.2557078,5.92925732 C37.2089041,6.07803574 37.1591752,6.20347636 37.1035959,6.30557919 L22.5169449,36 L18.4260131,36 L3.92419378,6.30557919 C3.79548373,6.08824602 3.69163813,5.84903367 3.61704481,5.58794214 C3.5439141,5.33122645 3.49711045,5.12556217 3.47955908,4.97386654 L3.47955908,36 L0,36 L0,0 L2.47620576,0 C3.14462043,0 3.77208191,0.175033427 4.35566495,0.528017503 C4.94071062,0.878084356 5.33415382,1.30691625 5.53891981,1.81013735 L20.1796875,31.8298286 C20.2542808,32.0136137 20.3127854,32.193023 20.3610517,32.3709736 C20.4063927,32.5445484 20.4385702,32.7254163 20.4575842,32.9092014 C20.4780608,32.7254163 20.5087757,32.5445484 20.5555793,32.3709736 C20.602383,32.193023 20.6623502,32.0136137 20.7369435,31.8298286 L35.4610802,1.81013735 C35.7214255,1.27190957 36.1338827,0.837243224 36.701377,0.501762489 C37.2659461,0.167740367 37.8714683,0 38.5237942,0 L41,0 L41,36 Z" id="Fill-1" fill="#8A8D8F"></path>
                <path d="M45,18.5007337 C45,16.7985723 45.2442841,15.1609756 45.7284376,13.5835415 C46.2140627,12.0075749 46.9057105,10.5328574 47.8019095,9.16085663 C48.6981085,7.78738846 49.765012,6.54304977 51.0085065,5.42197105 C52.2505294,4.29942495 53.6308819,3.33535594 55.1510355,2.52682927 C56.6756039,1.7183026 58.30907,1.09466587 60.0543771,0.657386476 C61.7996841,0.218639699 63.614156,0 65.5007358,0 C67.385844,0 69.203259,0.218639699 70.9485661,0.657386476 C72.6938732,1.09466587 74.3288109,1.7183026 75.8489645,2.52682927 C77.3705897,3.33535594 78.7524138,4.29942495 79.9929651,5.42197105 C81.234988,6.54304977 82.3048347,7.78738846 83.2010337,9.16085663 C84.0957611,10.5328574 84.7859373,12.0075749 85.2715624,13.5835415 C85.7571875,15.1609756 86,16.7985723 86,18.5007337 C86,20.2014277 85.7571875,21.8390244 85.2715624,23.4164585 C84.7859373,24.9924251 84.0957611,26.4656752 83.2010337,27.837676 C82.3048347,29.2126115 81.234988,30.4569502 79.9929651,31.578029 C78.7524138,32.6991077 77.3705897,33.6646441 75.8489645,34.4717034 C74.3288109,35.2816974 72.6938732,35.9038667 70.9485661,36.3426135 C69.203259,36.7813603 67.385844,37 65.5007358,37 C62.6620365,37 60.0028714,36.514297 57.5202972,35.5472933 C55.0347798,34.5773547 52.8656545,33.2552449 51.0085065,31.578029 C49.1498869,29.9022804 47.6841822,27.9447948 46.6113923,25.7026373 C45.5371308,23.4619473 45,21.0613127 45,18.5007337 M50.5464269,18.5007337 C50.5464269,20.3687091 50.9378701,22.1236962 51.7222282,23.7568907 C52.5080579,25.3900853 53.5749614,26.8193139 54.9288252,28.0387071 C56.2826891,29.2610351 57.8646495,30.2251041 59.6776498,30.9338489 C61.4862352,31.6425937 63.4272639,31.994765 65.5007358,31.994765 C67.5742077,31.994765 69.5137648,31.6425937 71.3282366,30.9338489 C73.1368221,30.2251041 74.7187825,29.2610351 76.0726464,28.0387071 C77.4279818,26.8193139 78.4948853,25.3900853 79.2792434,23.7568907 C80.0636015,22.1236962 80.4565163,20.3687091 80.4565163,18.5007337 C80.4565163,16.6312909 80.0636015,14.8777712 79.2792434,13.2416419 C78.4948853,11.6099147 77.4279818,10.1806861 76.0726464,8.9598255 C74.7187825,7.73749752 73.1368221,6.77342851 71.3282366,6.06321634 C69.5137648,5.35740631 67.5742077,5.0037676 65.5007358,5.0037676 C63.4272639,5.0037676 61.4862352,5.35740631 59.6776498,6.06321634 C57.8646495,6.77342851 56.2826891,7.73749752 54.9288252,8.9598255 C53.5749614,10.1806861 52.5080579,11.6099147 51.7222282,13.2416419 C50.9378701,14.8777712 50.5464269,16.6312909 50.5464269,18.5007337" id="Fill-3" fill="#8A8D8F"></path>
                <path d="M90,18.5007337 C90,16.7985723 90.2428125,15.1609756 90.7284376,13.5835415 C91.2140627,12.0075749 91.9071821,10.5328574 92.8019095,9.16085663 C93.6981085,7.78738846 94.7664836,6.54304977 96.0085065,5.42197105 C97.2490578,4.29942495 98.6308819,3.33535594 100.152507,2.52682927 C101.675604,1.7183026 103.30907,1.09466587 105.054377,0.657386476 C106.799684,0.218639699 108.614156,0 110.500736,0 C112.387316,0 114.203259,0.218639699 115.948566,0.657386476 C117.693873,1.09466587 119.327339,1.7183026 120.848965,2.52682927 C122.37059,3.33535594 123.753885,4.29942495 124.992965,5.42197105 C126.234988,6.54304977 127.304835,7.78738846 128.201034,9.16085663 C129.095761,10.5328574 129.787409,12.0075749 130.273034,13.5835415 C130.758659,15.1609756 131,16.7985723 131,18.5007337 C131,20.2014277 130.758659,21.8390244 130.273034,23.4164585 C129.787409,24.9924251 129.095761,26.4656752 128.201034,27.837676 C127.304835,29.2126115 126.234988,30.4569502 124.992965,31.578029 C123.753885,32.6991077 122.37059,33.6646441 120.848965,34.4717034 C119.327339,35.2816974 117.693873,35.9038667 115.948566,36.3426135 C114.203259,36.7813603 112.387316,37 110.500736,37 C107.662037,37 105.002871,36.514297 102.518826,35.5472933 C100.036251,34.5773547 97.8671261,33.2552449 96.0085065,31.578029 C94.1498869,29.9022804 92.6841822,27.9447948 91.6128639,25.7026373 C90.5371308,23.4619473 90,21.0613127 90,18.5007337 M95.5478985,18.5007337 C95.5478985,20.3687091 95.9378701,22.1236962 96.7222282,23.7568907 C97.5080579,25.3900853 98.5749614,26.8193139 99.9288252,28.0387071 C101.282689,29.2610351 102.86465,30.2251041 104.676178,30.9338489 C106.486235,31.6425937 108.427264,31.994765 110.500736,31.994765 C112.574208,31.994765 114.515236,31.6425937 116.326765,30.9338489 C118.136822,30.2251041 119.718783,29.2610351 121.072646,28.0387071 C122.425039,26.8193139 123.496357,25.3900853 124.280715,23.7568907 C125.065073,22.1236962 125.456516,20.3687091 125.456516,18.5007337 C125.456516,16.6312909 125.065073,14.8777712 124.280715,13.2416419 C123.496357,11.6099147 122.425039,10.1806861 121.072646,8.9598255 C119.718783,7.73749752 118.136822,6.77342851 116.326765,6.06321634 C114.515236,5.35740631 112.574208,5.0037676 110.500736,5.0037676 C108.427264,5.0037676 106.486235,5.35740631 104.676178,6.06321634 C102.86465,6.77342851 101.282689,7.73749752 99.9288252,8.9598255 C98.5749614,10.1806861 97.5080579,11.6099147 96.7222282,13.2416419 C95.9378701,14.8777712 95.5478985,16.6312909 95.5478985,18.5007337" id="Fill-5" fill="#8A8D8F"></path>
                <path d="M165,36 L143.994767,11.1044123 L143.994767,36 L134,36 L134,0 L143.873468,0 C144.855553,0 145.723647,0.116688951 146.480671,0.351525465 C147.234773,0.586361979 147.817886,0.946639115 148.22855,1.43235687 L163.589713,19.8721284 C163.814775,20.1390543 164.009146,20.4322353 164.174288,20.7502127 C164.336508,21.0696487 164.479728,21.3657469 164.601028,21.6414246 C164.726711,21.9185608 164.81732,22.1577732 164.877239,22.357603 C164.93862,22.5588915 164.96931,22.6843321 164.96931,22.7339249 L165,36 Z" id="Fill-7" fill="#8A8D8F"></path>
                <path d="M194.027935,2.79021149 C194.404577,2.43870027 194.847346,2.09302326 195.359119,1.76047322 C195.869454,1.42354752 196.421478,1.12600276 197.013754,0.867838911 C197.603155,0.606757961 198.23137,0.398184912 198.889774,0.239202658 C199.548178,0.0816789563 200.228145,0 200.928238,0 L212.791009,0 L192.867822,17.4851309 L214,36 L202.140104,36 C200.551597,36 199.218976,35.7447533 198.142241,35.2328012 C197.066944,34.7223078 196.07215,34.0309537 195.156422,33.1601977 C195.156422,33.1601977 177.027314,17.5011749 177,17.4851309 C177.027314,17.4851309 194.027935,2.79021149 194.027935,2.79021149" id="Fill-9" fill="#941B80"></path>
                <polygon id="Fill-11" fill="#941B80" points="176 36 166.032164 36 166 0 176 0"></polygon>
                <path d="M84,42.210292 C84.7291958,42.0921828 85.6330074,42 86.6960686,42 C88.2019557,42 89.3334664,42.3370433 90.0305328,42.9218279 C90.6395929,43.4331544 91,44.1490114 91,45.0607568 C91,45.9998691 90.69547,46.6998822 90.1241269,47.2414561 C89.320894,48.0437345 87.9616843,48.4614377 86.4180802,48.4614377 C85.8523249,48.4614377 85.3382558,48.4484745 84.8898423,48.3303653 L84.8898423,53 L84,53 L84,42.210292 Z M84.8898423,47.6548383 C85.3284773,47.7715071 85.8816603,47.8147178 86.4879266,47.8147178 C88.7481541,47.8147178 90.1017761,46.8655231 90.1017761,45.1370957 C90.1017761,43.4201912 88.6657354,42.6467199 86.6625424,42.6467199 C85.8481341,42.6467199 85.2265017,42.7172974 84.8898423,42.776352 L84.8898423,47.6548383 Z" id="Fill-13" fill="#888B8D"></path>
                <polygon id="Fill-15" fill="#888B8D" points="93.1815 53 93.8185 53 93.8185 41 93.1815 41"></polygon>
                <path d="M102.116914,52.8242381 L101.9755,51.7299787 L101.931872,51.7299787 C101.460993,52.3210489 100.385343,53 98.8478401,53 C96.9026435,53 96,51.9156627 96,50.8979447 C96,49.1318214 97.9662583,48.0687456 101.901784,48.0999291 L101.901784,47.8958186 C101.901784,47.1389086 101.713733,45.6293409 99.4270363,45.6406804 C98.5800559,45.6406804 97.6984741,45.8206945 96.9989254,46.2119064 L96.6950355,45.6605245 C97.5781216,45.1871013 98.6552762,45 99.5338491,45 C102.324522,45 102.858586,46.6569809 102.858586,48.0248051 L102.858586,51.0085046 C102.858586,51.6137491 102.890178,52.2388377 103,52.8242381 L102.116914,52.8242381 Z M101.901784,48.7363572 C99.7956157,48.6895819 97.0124651,48.9404678 97.0124651,50.7774628 C97.0124651,51.8773919 97.931657,52.3720765 98.9381044,52.3720765 C100.550827,52.3720765 101.467011,51.5811481 101.800989,50.836995 C101.871696,50.6725726 101.901784,50.5109851 101.901784,50.3777463 L101.901784,48.7363572 Z" id="Fill-17" fill="#888B8D"></path>
                <path d="M107.422622,43 L107.422622,45.208563 L110,45.208563 L110,45.8189911 L107.422622,45.8189911 L107.422622,50.7773068 C107.422622,51.745231 107.779966,52.3542461 108.75211,52.3542461 C109.217783,52.3542461 109.548396,52.3005511 109.779122,52.2341388 L109.887451,52.8177194 C109.594823,52.9208704 109.185425,53 108.638154,53 C107.979741,53 107.43247,52.8261975 107.080754,52.4602233 C106.669949,52.0603363 106.526449,51.4202346 106.526449,50.6416561 L106.526449,45.8189911 L105,45.8189911 L105,45.208563 L106.526449,45.208563 L106.526449,43.2458669 L107.422622,43 Z" id="Fill-18" fill="#888B8D"></path>
                <path d="M117.116914,52.8242381 L116.9755,51.7299787 L116.931872,51.7299787 C116.462497,52.3210489 115.385343,53 113.84784,53 C111.902643,53 111,51.9156627 111,50.8979447 C111,49.1318214 112.964754,48.0687456 116.900279,48.0999291 L116.900279,47.8958186 C116.900279,47.1389086 116.713733,45.6293409 114.428541,45.6406804 C113.580056,45.6406804 112.698474,45.8206945 111.998925,46.2119064 L111.695035,45.6605245 C112.578122,45.1871013 113.655276,45 114.532345,45 C117.324522,45 117.858586,46.6569809 117.858586,48.0248051 L117.858586,51.0085046 C117.858586,51.6137491 117.890178,52.2388377 118,52.8242381 L117.116914,52.8242381 Z M116.900279,48.7363572 C114.795616,48.6895819 112.012465,48.9404678 112.012465,50.7774628 C112.012465,51.8773919 112.931657,52.3720765 113.938104,52.3720765 C115.550827,52.3720765 116.467011,51.5811481 116.800989,50.836995 C116.871696,50.6725726 116.900279,50.5109851 116.900279,50.3777463 L116.900279,48.7363572 Z" id="Fill-19" fill="#888B8D"></path>
                <path d="M120.384157,53 L120.384157,45.6504627 L119,45.6504627 L119,45.0108575 L120.384157,45.0108575 L120.384157,44.5726095 C120.384157,43.3422579 120.667246,42.3473165 121.442016,41.6973473 C122.030544,41.2102406 122.814254,41 123.568165,41 C124.186491,41 124.715421,41.1302899 125,41.2724244 L124.699032,41.8927822 C124.430842,41.7758174 124.067296,41.6692165 123.483238,41.6692165 C121.701266,41.6692165 121.331761,43.037261 121.331761,44.560765 L121.331761,45.0108575 L123.895952,45.0108575 L123.895952,45.6504627 L121.331761,45.6504627 L121.331761,53 L120.384157,53 Z" id="Fill-20" fill="#888B8D"></path>
                <path d="M134,48.9277108 C134,51.7852587 131.542739,53 129.402158,53 C126.915021,53 125,51.4620836 125,49.0595322 C125,46.4415308 127.155519,45 129.542573,45 C132.194025,45 134,46.5861091 134,48.9277108 M125.960498,49.0240964 C125.960498,50.9362155 127.491618,52.3720765 129.467884,52.3720765 C131.463568,52.3720765 133.038008,50.9234585 133.038008,48.9645641 C133.038008,47.5655563 132.047635,45.6293409 129.515685,45.6293409 C127.06888,45.6293409 125.960498,47.3742027 125.960498,49.0240964" id="Fill-21" fill="#888B8D"></path>
                <path d="M136.078832,47.5256294 C136.078832,46.7431625 136.048175,45.9375113 136,45.1796776 L136.861314,45.1796776 L136.89927,46.7692447 L136.953285,46.7692447 C137.364964,45.7795689 138.332847,45 139.618978,45 C139.751825,45 139.883212,45.0130411 140,45.0376743 L140,45.7795689 C139.858394,45.7534867 139.725547,45.7534867 139.550365,45.7534867 C138.264234,45.7534867 137.340146,46.686651 137.084672,47.9400471 C137.036496,48.1689911 137.007299,48.4298134 137.007299,48.6833907 L137.007299,53 L136.078832,53 L136.078832,47.5256294 Z" id="Fill-22" fill="#888B8D"></path>
                <path d="M142.078735,47.0489042 C142.078735,46.3316428 142.048116,45.7955081 142,45.1796776 L142.864625,45.1796776 L142.933154,46.5649339 L142.971063,46.5649339 C143.571781,45.6650969 144.472858,45 146.015478,45 C147.318977,45 148.306079,45.7259554 148.707044,46.7112842 L148.744953,46.7112842 C149.013235,46.2461511 149.354419,45.8954899 149.702894,45.6520558 C150.307986,45.2332911 150.942239,45 151.943921,45 C152.85812,45 155,45.4332548 155,48.3935881 L155,53 L154.074136,53 L154.074136,48.4674878 C154.074136,46.7112842 153.257627,45.6650969 151.626066,45.6650969 C150.458165,45.6650969 149.529385,46.3896033 149.163414,47.2155407 C149.077389,47.4401377 149.003028,47.70096 149.003028,47.9893135 L149.003028,53 L148.075707,53 L148.075707,48.1124796 C148.075707,46.7040391 147.265029,45.6650969 145.75157,45.6650969 C144.490354,45.6650969 143.500336,46.5156675 143.147488,47.4285456 C143.065837,47.6473465 143.006057,47.9139649 143.006057,48.1820322 L143.006057,53 L142.078735,53 L142.078735,47.0489042 Z" id="Fill-23" fill="#888B8D"></path>
                <path d="M163.118229,52.8242381 L162.976784,51.7299787 L162.931642,51.7299787 C162.462167,52.3210489 161.386285,53 159.846948,53 C157.901333,53 157,51.9156627 157,50.8979447 C157,49.1318214 158.965176,48.0687456 162.901548,48.0999291 L162.901548,47.8958186 C162.901548,47.1389086 162.713457,45.6293409 160.427773,45.6406804 C159.579106,45.6406804 158.697334,45.8206945 157.99914,46.2119064 L157.695185,45.6605245 C158.576956,45.1871013 159.654342,45 160.533104,45 C163.324377,45 163.858555,46.6569809 163.858555,48.0248051 L163.858555,51.0085046 C163.858555,51.6137491 163.89166,52.2388377 164,52.8242381 L163.118229,52.8242381 Z M162.901548,48.7363572 C160.794927,48.6895819 158.011178,48.9404678 158.011178,50.7774628 C158.011178,51.8773919 158.930567,52.3720765 159.938736,52.3720765 C161.551806,52.3720765 162.466681,51.5811481 162.800731,50.836995 C162.871453,50.6725726 162.901548,50.5109851 162.901548,50.3777463 L162.901548,48.7363572 Z" id="Fill-24" fill="#888B8D"></path>
                <polygon id="Fill-25" fill="#941B80" points="166 42 174 42 174 43.6533386 168.529299 43.6533386 168.529299 46.6885722 173.615473 46.6885722 173.615473 48.3273951 168.529299 48.3273951 168.529299 53 166 53"></polygon>
                <path d="M179,43.0624113 C179.003242,43.648227 178.422127,44.1205674 177.471509,44.1205674 C176.581118,44.1205674 175.998376,43.648227 176,43.0624113 C175.998376,42.4638298 176.600651,42 177.504064,42 C178.415616,42 178.99022,42.458156 179,43.0624113 L179,43.0624113 Z M176.157897,53 L178.84372,53 L178.84372,45.2340426 L176.157897,45.2340426 L176.157897,53 Z" id="Fill-26" fill="#941B80"></path>
                <path d="M181.080087,47.5037513 C181.080087,46.5977135 181.043821,45.8545909 181,45.1772061 L183.177468,45.1772061 L183.299866,46.3504823 L183.357287,46.3504823 C183.792478,45.7445516 184.860813,45 186.498825,45 C188.215413,45 190,45.8774562 190,48.3526259 L190,53 L187.508227,53 L187.508227,48.5855663 C187.508227,47.463737 186.988415,46.607717 185.628442,46.607717 C184.635662,46.607717 183.94812,47.1636299 183.689725,47.7695606 C183.611148,47.9310468 183.573371,48.1711325 183.573371,48.3969275 L183.573371,53 L181.080087,53 L181.080087,47.5037513 Z" id="Fill-27" fill="#941B80"></path>
                <path d="M197.88252,52.8266037 L197.721609,51.9750044 L197.664649,51.9750044 C197.100748,52.5790946 196.131007,53 194.927732,53 C193.043788,53 192,51.891103 192,50.7234749 C192,48.7909456 194.089,47.8148925 197.509434,47.8260794 L197.509434,47.6988289 C197.509434,47.1954204 197.265931,46.3592029 195.622642,46.3647964 C194.712709,46.3647964 193.758633,46.6067121 193.124956,46.935326 L192.660733,45.6809998 C193.361339,45.3272155 194.564614,45 196.025632,45 C199.007476,45 199.857601,46.5479811 199.857601,48.2274078 L199.857601,50.9835693 C199.857601,51.6799511 199.898896,52.3539591 200,52.8266037 L197.88252,52.8266037 Z M197.570666,49.0776088 C195.91456,49.0608285 194.328231,49.3474917 194.328231,50.5137214 C194.328231,51.2632407 194.924884,51.617025 195.668209,51.617025 C196.606622,51.617025 197.280171,51.1178116 197.505162,50.5570704 C197.556426,50.4214298 197.570666,50.2704073 197.570666,50.136165 L197.570666,49.0776088 Z" id="Fill-28" fill="#941B80"></path>
                <path d="M202.080074,47.5037513 C202.080074,46.5977135 202.045325,45.8545909 202,45.1772061 L204.177103,45.1772061 L204.29948,46.3504823 L204.358402,46.3504823 C204.79352,45.7445516 205.860165,45 207.497902,45 C209.215713,45 211,45.8774562 211,48.3526259 L211,53 L208.508645,53 L208.508645,48.5855663 C208.508645,47.463737 207.988921,46.607717 206.629176,46.607717 C205.636562,46.607717 204.949135,47.1636299 204.689273,47.7695606 C204.612221,47.9310468 204.57445,48.1711325 204.57445,48.3969275 L204.57445,53 L202.080074,53 L202.080074,47.5037513 Z" id="Fill-29" fill="#941B80"></path>
                <path d="M219.970887,52.605042 C219.446849,52.7955182 218.406436,53 217.148439,53 C214.016472,53 212,51.4593838 212,49.0798319 C212,46.7857143 214.042521,45 217.557556,45 C218.492243,45 219.422333,45.1582633 220,45.3501401 L219.551044,46.8081232 C219.144991,46.6554622 218.538211,46.5070028 217.638767,46.5070028 C215.711166,46.5070028 214.56809,47.5896359 214.578816,48.9929972 C214.578816,50.5672269 215.924152,51.4677871 217.64796,51.4677871 C218.512162,51.4677871 219.138862,51.32493 219.632254,51.1652661 L219.970887,52.605042 Z" id="Fill-30" fill="#941B80"></path>
                <path d="M225,43.0624113 C225.003242,43.648227 224.420502,44.1205674 223.469886,44.1205674 C222.581126,44.1205674 221.996758,43.648227 222,43.0624113 C221.996758,42.4638298 222.599031,42 223.500814,42 C224.413991,42 224.99022,42.458156 225,43.0624113 L225,43.0624113 Z M222.156279,53 L224.842093,53 L224.842093,45.2340426 L222.156279,45.2340426 L222.156279,53 Z" id="Fill-31" fill="#941B80"></path>
                <path d="M228.3685,49.5388383 C228.433,50.9272218 229.807,51.5346396 231.3895,51.5346396 C232.5265,51.5346396 233.341,51.3946816 234.0895,51.1791463 L234.457,52.5115465 C233.617,52.7914626 232.4575,53 231.0355,53 C227.8585,53 226,51.4618614 226,49.1147656 C226,47 227.6365,45 230.782,45 C233.965,45 235,47.0475857 235,48.7256823 C235,49.0853744 234.961,49.3736879 234.913,49.5388383 L228.3685,49.5388383 Z M232.6705,48.1882435 C232.681,47.4786564 232.2865,46.3212036 230.6305,46.3212036 C229.1065,46.3212036 228.4735,47.4044787 228.3625,48.1882435 L232.6705,48.1882435 Z" id="Fill-32" fill="#941B80"></path>
                <path d="M237.072796,47.6928712 C237.072796,46.6437377 237.048531,45.8747543 237,45.1772378 L238.926395,45.1772378 L239.009976,46.6637484 L239.071987,46.6637484 C239.504718,45.5617295 240.529253,45 241.478296,45 C241.695336,45 241.822054,45.0071467 242,45.0428801 L242,46.9053064 C241.81127,46.8710023 241.615799,46.8495623 241.347533,46.8495623 C240.289296,46.8495623 239.554597,47.4498839 239.353734,48.3460783 C239.317336,48.5218867 239.298463,48.7319993 239.298463,48.9421118 L239.298463,53 L237.072796,53 L237.072796,47.6928712 Z" id="Fill-33" fill="#941B80"></path>
                <path d="M248.881474,52.8266037 L248.722015,51.9750044 L248.666489,51.9750044 C248.101264,52.5790946 247.131696,53 245.930059,53 C244.04645,53 243,51.891103 243,50.7234749 C243,48.7909456 245.088628,47.8148925 248.508453,47.8260794 L248.508453,47.6988289 C248.508453,47.1954204 248.266418,46.3592029 246.623421,46.3647964 C245.712226,46.3647964 244.759744,46.6067121 244.126179,46.935326 L243.66204,45.6809998 C244.363944,45.3272155 245.565581,45 247.027763,45 C250.006229,45 250.857626,46.5479811 250.857626,48.2274078 L250.857626,50.9835693 C250.857626,51.6799511 250.898914,52.3539591 251,52.8266037 L248.881474,52.8266037 Z M248.569674,49.0776088 C246.913864,49.0608285 245.330664,49.3474917 245.330664,50.5137214 C245.330664,51.2632407 245.927211,51.617025 246.667557,51.617025 C247.605802,51.617025 248.280655,51.1178116 248.505606,50.5570704 C248.555437,50.4214298 248.569674,50.2704073 248.569674,50.136165 L248.569674,49.0776088 Z" id="Fill-34" fill="#941B80"></path>
            </g>
        </g>
    </g>
</svg>