<?xml version="1.0" encoding="UTF-8"?>
<svg width="16px" height="16px" viewBox="0 0 16 16" version="1.1" xmlns="http://www.w3.org/2000/svg" xmlns:xlink="http://www.w3.org/1999/xlink">
    <!-- Generator: Sketch 63.1 (92452) - https://sketch.com -->
    <title>Path</title>
    <desc>Created with Sketch.</desc>
    <g id="Symbols" stroke="none" stroke-width="1" fill="none" fill-rule="evenodd">
        <g id="Footer" transform="translate(-321.000000, -97.000000)" fill="#FFFFFF" fill-rule="nonzero">
            <g id="Group-3" transform="translate(321.000000, 83.000000)">
                <g id="Group-2" transform="translate(0.000000, 12.000000)">
                    <g id="noun_Phone_889994" transform="translate(0.000000, 2.000000)">
                        <path d="M15.3955332,11.299425 L13.8861441,9.79004972 C13.4950186,9.39892775 12.9758883,9.18381066 12.4247568,9.18381066 C11.8736254,9.18381066 11.3544951,9.39892775 10.9633695,9.79004972 L10.2966782,10.4585127 C9.94999875,10.8034112 9.40242297,10.8478569 8.99351898,10.5616267 C8.31082709,10.0833912 7.66013639,9.53759827 7.06100315,8.93847051 C6.46186991,8.33934276 5.91607197,7.69043585 5.43783208,7.00597239 C5.15159929,6.59707214 5.19604537,6.04950138 5.54272485,5.70282508 L6.20941614,5.03613989 C6.6005417,4.64501792 6.81566075,4.12589239 6.81566075,3.57476597 C6.81566075,3.02363955 6.6005417,2.50451401 6.20941614,2.11339204 L4.70002705,0.604016778 C3.89466397,-0.201338926 2.58439335,-0.201338926 1.77903027,0.604016778 L1.09100486,1.29203589 C0.262529809,2.12050335 -0.130373593,3.28142448 0.0385215345,4.39967777 C0.274974713,5.97127698 0.859885207,7.57665491 1.72925065,9.04514014 C2.35505155,10.1029473 3.12307991,11.093197 4.01555733,11.9838884 C4.90625689,12.8763577 5.89651569,13.644379 6.95433254,14.2683963 C8.42283123,15.1395317 10.0282239,15.7244368 11.6016153,15.9608878 C11.7705104,15.9875552 11.9429613,16 12.1136342,16 C13.0647805,16 14.0052597,15.6106559 14.7075078,14.9084141 L15.3955332,14.220395 C15.7848809,13.8310509 16,13.3119253 16,12.7590211 C16,12.2078947 15.7848809,11.6887691 15.3955332,11.299425 Z" id="Path"></path>
                    </g>
                </g>
            </g>
        </g>
    </g>
</svg>