<?xml version="1.0" encoding="UTF-8"?>
<svg width="16px" height="16px" viewBox="0 0 16 16" version="1.1" xmlns="http://www.w3.org/2000/svg" xmlns:xlink="http://www.w3.org/1999/xlink">
    <!-- Generator: Sketch 63.1 (92452) - https://sketch.com -->
    <title>icons/dark/social/linkedin</title>
    <desc>Created with Sketch.</desc>
    <defs>
        <path d="M4.63220772,5.96723774 L4.63220772,16.2712145 L1.20278999,16.2712145 L1.20278999,5.96723774 L4.63220772,5.96723774 Z M13.0514509,5.7252804 C15.3081658,5.7252804 17,7.19829313 17,10.3632291 L17,10.3632291 L16.999863,16.2712145 L13.5705823,16.2712145 L13.5705823,10.7585811 C13.5705823,9.37392589 13.0743255,8.42907498 11.8328618,8.42907498 C10.8854127,8.42907498 10.3210799,9.06604236 10.0732254,9.68126231 C9.98254866,9.90174577 9.96029038,10.2089454 9.96029038,10.5168973 L9.96029038,10.5168973 L9.96029038,16.271488 L6.53046173,16.271488 C6.53046173,16.271488 6.57566315,6.9343832 6.53046173,5.96751129 L6.53046173,5.96751129 L9.96029038,5.96751129 L9.96029038,7.42698316 C10.4154549,6.72538896 11.2306556,5.7252804 13.0514509,5.7252804 Z M2.94016805,1 C4.11335026,1 4.83581955,1.76950366 4.85807783,2.77980205 C4.85807783,3.76917366 4.11335026,4.56083508 2.91756734,4.56083508 L2.91756734,4.56083508 L2.8956515,4.56083508 C1.74431665,4.56083508 1,3.76917366 1,2.77980205 C1,1.76950366 1.76698584,1 2.94016805,1 Z" id="path-1"></path>
    </defs>
    <g id="Symbols" stroke="none" stroke-width="1" fill="none" fill-rule="evenodd">
        <g id="menu" transform="translate(-1283.000000, -97.000000)">
            <g id="Group-7" transform="translate(1210.000000, 96.000000)">
                <g id="icons/social/linkedin" transform="translate(72.000000, 0.000000)">
                    <mask id="mask-2" fill="white">
                        <use xlink:href="#path-1"></use>
                    </mask>
                    <use id="Mask" fill="#212B36" fill-rule="evenodd" xlink:href="#path-1"></use>
                    <g id="color/main" mask="url(#mask-2)" fill="#212B36" fill-rule="evenodd">
                        <rect x="0" y="0" width="18" height="18" rx="4"></rect>
                    </g>
                </g>
            </g>
        </g>
    </g>
</svg>