<?xml version="1.0" encoding="UTF-8"?>
<svg width="173px" height="37px" viewBox="0 0 173 37" version="1.1" xmlns="http://www.w3.org/2000/svg" xmlns:xlink="http://www.w3.org/1999/xlink">
    <!-- Generator: Sketch 63.1 (92452) - https://sketch.com -->
    <title>Group 35</title>
    <desc>Created with Sketch.</desc>
    <defs>
        <polygon id="path-1" points="0 36.6352 172.5 36.6352 172.5 0.0002 0 0.0002"></polygon>
    </defs>
    <g id="Symbols" stroke="none" stroke-width="1" fill="none" fill-rule="evenodd">
        <g id="Footer" transform="translate(-321.000000, -34.000000)">
            <g id="Group-35" transform="translate(321.000000, 34.000000)">
                <path d="M28.032,24.957 L25.653,24.957 L25.653,3.686 C25.628,3.823 25.599,3.942 25.568,4.039 C25.536,4.137 25.505,4.237 25.472,4.341 C25.44,4.443 25.406,4.529 25.368,4.599 L15.395,24.957 L12.598,24.957 L2.683,4.599 C2.595,4.45 2.524,4.286 2.473,4.107 C2.423,3.931 2.391,3.79 2.379,3.686 L2.379,24.957 L0,24.957 L0,0.276 L1.693,0.276 C2.15,0.276 2.579,0.396 2.978,0.638 C3.378,0.878 3.647,1.172 3.787,1.517 L13.797,22.098 C13.848,22.224 13.888,22.347 13.921,22.469 C13.952,22.588 13.974,22.712 13.987,22.838 C14.001,22.712 14.022,22.588 14.054,22.469 C14.086,22.347 14.127,22.224 14.178,22.098 L24.245,1.517 C24.423,1.148 24.705,0.85 25.093,0.62 C25.479,0.391 25.893,0.276 26.339,0.276 L28.032,0.276 L28.032,24.957 Z" id="Fill-1" fill="#FFFFFF"></path>
                <path d="M30.8904,12.6083 C30.8904,11.4483 31.0564,10.3323 31.3854,9.2573 C31.7154,8.1833 32.1854,7.1783 32.7944,6.2433 C33.4034,5.3073 34.1284,4.4593 34.9734,3.6953 C35.8174,2.9303 36.7554,2.2733 37.7884,1.7223 C38.8244,1.1713 39.9344,0.7463 41.1204,0.4483 C42.3064,0.1493 43.5394,0.0003 44.8214,0.0003 C46.1024,0.0003 47.3374,0.1493 48.5234,0.4483 C49.7094,0.7463 50.8204,1.1713 51.8534,1.7223 C52.8874,2.2733 53.8264,2.9303 54.6694,3.6953 C55.5134,4.4593 56.2404,5.3073 56.8494,6.2433 C57.4574,7.1783 57.9264,8.1833 58.2564,9.2573 C58.5864,10.3323 58.7514,11.4483 58.7514,12.6083 C58.7514,13.7673 58.5864,14.8833 58.2564,15.9583 C57.9264,17.0323 57.4574,18.0363 56.8494,18.9713 C56.2404,19.9083 55.5134,20.7563 54.6694,21.5203 C53.8264,22.2843 52.8874,22.9423 51.8534,23.4923 C50.8204,24.0443 49.7094,24.4683 48.5234,24.7673 C47.3374,25.0663 46.1024,25.2153 44.8214,25.2153 C42.8924,25.2153 41.0854,24.8843 39.3984,24.2253 C37.7094,23.5643 36.2354,22.6633 34.9734,21.5203 C33.7104,20.3783 32.7144,19.0443 31.9854,17.5163 C31.2554,15.9893 30.8904,14.3533 30.8904,12.6083 M34.6594,12.6083 C34.6594,13.8813 34.9254,15.0773 35.4584,16.1903 C35.9924,17.3033 36.7174,18.2773 37.6374,19.1083 C38.5574,19.9413 39.6324,20.5983 40.8644,21.0813 C42.0934,21.5643 43.4124,21.8043 44.8214,21.8043 C46.2304,21.8043 47.5484,21.5643 48.7814,21.0813 C50.0104,20.5983 51.0854,19.9413 52.0054,19.1083 C52.9264,18.2773 53.6514,17.3033 54.1844,16.1903 C54.7174,15.0773 54.9844,13.8813 54.9844,12.6083 C54.9844,11.3343 54.7174,10.1393 54.1844,9.0243 C53.6514,7.9123 52.9264,6.9383 52.0054,6.1063 C51.0854,5.2733 50.0104,4.6163 48.7814,4.1323 C47.5484,3.6513 46.2304,3.4103 44.8214,3.4103 C43.4124,3.4103 42.0934,3.6513 40.8644,4.1323 C39.6324,4.6163 38.5574,5.2733 37.6374,6.1063 C36.7174,6.9383 35.9924,7.9123 35.4584,9.0243 C34.9254,10.1393 34.6594,11.3343 34.6594,12.6083" id="Fill-3" fill="#FFFFFF"></path>
                <path d="M61.6101,12.6083 C61.6101,11.4483 61.7751,10.3323 62.1051,9.2573 C62.4351,8.1833 62.9061,7.1783 63.5141,6.2433 C64.1231,5.3073 64.8491,4.4593 65.6931,3.6953 C66.5361,2.9303 67.4751,2.2733 68.5091,1.7223 C69.5441,1.1713 70.6541,0.7463 71.8401,0.4483 C73.0261,0.1493 74.2591,0.0003 75.5411,0.0003 C76.8231,0.0003 78.0571,0.1493 79.2431,0.4483 C80.4291,0.7463 81.5391,1.1713 82.5731,1.7223 C83.6071,2.2733 84.5471,2.9303 85.3891,3.6953 C86.2331,4.4593 86.9601,5.3073 87.5691,6.2433 C88.1771,7.1783 88.6471,8.1833 88.9771,9.2573 C89.3071,10.3323 89.4711,11.4483 89.4711,12.6083 C89.4711,13.7673 89.3071,14.8833 88.9771,15.9583 C88.6471,17.0323 88.1771,18.0363 87.5691,18.9713 C86.9601,19.9083 86.2331,20.7563 85.3891,21.5203 C84.5471,22.2843 83.6071,22.9423 82.5731,23.4923 C81.5391,24.0443 80.4291,24.4683 79.2431,24.7673 C78.0571,25.0663 76.8231,25.2153 75.5411,25.2153 C73.6121,25.2153 71.8051,24.8843 70.1171,24.2253 C68.4301,23.5643 66.9561,22.6633 65.6931,21.5203 C64.4301,20.3783 63.4341,19.0443 62.7061,17.5163 C61.9751,15.9893 61.6101,14.3533 61.6101,12.6083 M65.3801,12.6083 C65.3801,13.8813 65.6451,15.0773 66.1781,16.1903 C66.7121,17.3033 67.4371,18.2773 68.3571,19.1083 C69.2771,19.9413 70.3521,20.5983 71.5831,21.0813 C72.8131,21.5643 74.1321,21.8043 75.5411,21.8043 C76.9501,21.8043 78.2691,21.5643 79.5001,21.0813 C80.7301,20.5983 81.8051,19.9413 82.7251,19.1083 C83.6441,18.2773 84.3721,17.3033 84.9051,16.1903 C85.4381,15.0773 85.7041,13.8813 85.7041,12.6083 C85.7041,11.3343 85.4381,10.1393 84.9051,9.0243 C84.3721,7.9123 83.6441,6.9383 82.7251,6.1063 C81.8051,5.2733 80.7301,4.6163 79.5001,4.1323 C78.2691,3.6513 76.9501,3.4103 75.5411,3.4103 C74.1321,3.4103 72.8131,3.6513 71.5831,4.1323 C70.3521,4.6163 69.2771,5.2733 68.3571,6.1063 C67.4371,6.9383 66.7121,7.9123 66.1781,9.0243 C65.6451,10.1393 65.3801,11.3343 65.3801,12.6083" id="Fill-5" fill="#FFFFFF"></path>
                <path d="M113.5437,24.957 L99.1707,7.889 L99.1707,24.957 L92.3317,24.957 L92.3317,0.276 L99.0877,0.276 C99.7597,0.276 100.3537,0.356 100.8717,0.517 C101.3877,0.678 101.7867,0.925 102.0677,1.258 L112.5787,13.9 C112.7327,14.083 112.8657,14.284 112.9787,14.502 C113.0897,14.721 113.1877,14.924 113.2707,15.113 C113.3567,15.303 113.4187,15.467 113.4597,15.604 C113.5017,15.742 113.5227,15.828 113.5227,15.862 L113.5437,24.957 Z" id="Fill-7" fill="#FFFFFF"></path>
                <path d="M133.2283,2.1884 C133.4903,1.9474 133.7983,1.7104 134.1543,1.4824 C134.5093,1.2514 134.8933,1.0474 135.3053,0.8704 C135.7153,0.6914 136.1523,0.5484 136.6103,0.4394 C137.0683,0.3314 137.5413,0.2754 138.0283,0.2754 L146.2803,0.2754 L132.4213,12.2634 L147.1213,24.9574 L138.8713,24.9574 C137.7663,24.9574 136.8393,24.7824 136.0903,24.4314 C135.3423,24.0814 134.6503,23.6074 134.0133,23.0104 C134.0133,23.0104 121.4023,12.2744 121.3833,12.2634 C121.4023,12.2634 133.2283,2.1884 133.2283,2.1884" id="Fill-9" fill="#FFFFFF"></path>
                <polygon id="Fill-11" fill="#FFFFFF" points="121.0808 24.9863 114.2628 24.9863 114.2408 0.3053 121.0808 0.3053"></polygon>
                <path d="M57.2361,29.0205 C57.7581,28.9385 58.4051,28.8745 59.1661,28.8745 C60.2441,28.8745 61.0541,29.1085 61.5531,29.5145 C61.9891,29.8695 62.2471,30.3665 62.2471,30.9995 C62.2471,31.6515 62.0291,32.1375 61.6201,32.5135 C61.0451,33.0705 60.0721,33.3605 58.9671,33.3605 C58.5621,33.3605 58.1941,33.3515 57.8731,33.2695 L57.8731,36.5115 L57.2361,36.5115 L57.2361,29.0205 Z M57.8731,32.8005 C58.1871,32.8815 58.5831,32.9115 59.0171,32.9115 C60.6351,32.9115 61.6041,32.2525 61.6041,31.0525 C61.6041,29.8605 60.5761,29.3235 59.1421,29.3235 C58.5591,29.3235 58.1141,29.3725 57.8731,29.4135 L57.8731,32.8005 Z" id="Fill-13" fill="#FFFFFF"></path>
                <mask id="mask-2" fill="white">
                    <use xlink:href="#path-1"></use>
                </mask>
                <g id="Clip-16"></g>
                <polygon id="Fill-15" fill="#FFFFFF" mask="url(#mask-2)" points="63.84 36.5112 64.477 36.5112 64.477 28.5282 63.84 28.5282"></polygon>
                <path d="M70.1785,36.5107 L70.0845,35.7387 L70.0555,35.7387 C69.7425,36.1557 69.0275,36.6347 68.0055,36.6347 C66.7125,36.6347 66.1125,35.8697 66.1125,35.1517 C66.1125,33.9057 67.4195,33.1557 70.0355,33.1777 L70.0355,33.0337 C70.0355,32.4997 69.9105,31.4347 68.3905,31.4427 C67.8275,31.4427 67.2415,31.5697 66.7765,31.8457 L66.5745,31.4567 C67.1615,31.1227 67.8775,30.9907 68.4615,30.9907 C70.3165,30.9907 70.6715,32.1597 70.6715,33.1247 L70.6715,35.2297 C70.6715,35.6567 70.6925,36.0977 70.7655,36.5107 L70.1785,36.5107 Z M70.0355,33.6267 C68.6355,33.5937 66.7855,33.7707 66.7855,35.0667 C66.7855,35.8427 67.3965,36.1917 68.0655,36.1917 C69.1375,36.1917 69.7465,35.6337 69.9685,35.1087 C70.0155,34.9927 70.0355,34.8787 70.0355,34.7847 L70.0355,33.6267 Z" id="Fill-17" fill="#FFFFFF" mask="url(#mask-2)"></path>
                <path d="M73.6101,29.5517 L73.6101,31.1147 L75.4421,31.1147 L75.4421,31.5467 L73.6101,31.5467 L73.6101,35.0557 C73.6101,35.7407 73.8641,36.1717 74.5551,36.1717 C74.8861,36.1717 75.1211,36.1337 75.2851,36.0867 L75.3621,36.4997 C75.1541,36.5727 74.8631,36.6287 74.4741,36.6287 C74.0061,36.6287 73.6171,36.5057 73.3671,36.2467 C73.0751,35.9637 72.9731,35.5107 72.9731,34.9597 L72.9731,31.5467 L71.8881,31.5467 L71.8881,31.1147 L72.9731,31.1147 L72.9731,29.7257 L73.6101,29.5517 Z" id="Fill-18" fill="#FFFFFF" mask="url(#mask-2)"></path>
                <path d="M80.3748,36.5107 L80.2808,35.7387 L80.2518,35.7387 C79.9398,36.1557 79.2238,36.6347 78.2018,36.6347 C76.9088,36.6347 76.3088,35.8697 76.3088,35.1517 C76.3088,33.9057 77.6148,33.1557 80.2308,33.1777 L80.2308,33.0337 C80.2308,32.4997 80.1068,31.4347 78.5878,31.4427 C78.0238,31.4427 77.4378,31.5697 76.9728,31.8457 L76.7708,31.4567 C77.3578,31.1227 78.0738,30.9907 78.6568,30.9907 C80.5128,30.9907 80.8678,32.1597 80.8678,33.1247 L80.8678,35.2297 C80.8678,35.6567 80.8888,36.0977 80.9618,36.5107 L80.3748,36.5107 Z M80.2308,33.6267 C78.8318,33.5937 76.9818,33.7707 76.9818,35.0667 C76.9818,35.8427 77.5928,36.1917 78.2618,36.1917 C79.3338,36.1917 79.9428,35.6337 80.1648,35.1087 C80.2118,34.9927 80.2308,34.8787 80.2308,34.7847 L80.2308,33.6267 Z" id="Fill-19" fill="#FFFFFF" mask="url(#mask-2)"></path>
                <path d="M82.99,36.5107 L82.99,31.5467 L82.061,31.5467 L82.061,31.1147 L82.99,31.1147 L82.99,30.8187 C82.99,29.9877 83.18,29.3157 83.7,28.8767 C84.095,28.5477 84.621,28.4057 85.127,28.4057 C85.542,28.4057 85.897,28.4937 86.088,28.5897 L85.886,29.0087 C85.706,28.9297 85.462,28.8577 85.07,28.8577 C83.874,28.8577 83.626,29.7817 83.626,30.8107 L83.626,31.1147 L85.347,31.1147 L85.347,31.5467 L83.626,31.5467 L83.626,36.5107 L82.99,36.5107 Z" id="Fill-20" fill="#FFFFFF" mask="url(#mask-2)"></path>
                <path d="M91.7507,33.7617 C91.7507,35.7777 90.1057,36.6347 88.6727,36.6347 C87.0077,36.6347 85.7257,35.5497 85.7257,33.8547 C85.7257,32.0077 87.1687,30.9907 88.7667,30.9907 C90.5417,30.9907 91.7507,32.1097 91.7507,33.7617 M86.3687,33.8297 C86.3687,35.1787 87.3937,36.1917 88.7167,36.1917 C90.0527,36.1917 91.1067,35.1697 91.1067,33.7877 C91.1067,32.8007 90.4437,31.4347 88.7487,31.4347 C87.1107,31.4347 86.3687,32.6657 86.3687,33.8297" id="Fill-21" fill="#FFFFFF" mask="url(#mask-2)"></path>
                <path d="M93.3767,32.7333 C93.3767,32.1933 93.3557,31.6373 93.3227,31.1143 L93.9127,31.1143 L93.9387,32.2113 L93.9757,32.2113 C94.2577,31.5283 94.9207,30.9903 95.8017,30.9903 C95.8927,30.9903 95.9827,30.9993 96.0627,31.0163 L96.0627,31.5283 C95.9657,31.5103 95.8747,31.5103 95.7547,31.5103 C94.8737,31.5103 94.2407,32.1543 94.0657,33.0193 C94.0327,33.1773 94.0127,33.3573 94.0127,33.5323 L94.0127,36.5113 L93.3767,36.5113 L93.3767,32.7333 Z" id="Fill-22" fill="#FFFFFF" mask="url(#mask-2)"></path>
                <path d="M97.4216,32.4042 C97.4216,31.9092 97.4006,31.5392 97.3676,31.1142 L97.9606,31.1142 L98.0076,32.0702 L98.0336,32.0702 C98.4456,31.4492 99.0636,30.9902 100.1216,30.9902 C101.0156,30.9902 101.6926,31.4912 101.9676,32.1712 L101.9936,32.1712 C102.1776,31.8502 102.4116,31.6082 102.6506,31.4402 C103.0656,31.1512 103.5006,30.9902 104.1876,30.9902 C104.8146,30.9902 106.2836,31.2892 106.2836,33.3322 L106.2836,36.5112 L105.6486,36.5112 L105.6486,33.3832 C105.6486,32.1712 105.0886,31.4492 103.9696,31.4492 C103.1686,31.4492 102.5316,31.9492 102.2806,32.5192 C102.2216,32.6742 102.1706,32.8542 102.1706,33.0532 L102.1706,36.5112 L101.5346,36.5112 L101.5346,33.1382 C101.5346,32.1662 100.9786,31.4492 99.9406,31.4492 C99.0756,31.4492 98.3966,32.0362 98.1546,32.6662 C98.0986,32.8172 98.0576,33.0012 98.0576,33.1862 L98.0576,36.5112 L97.4216,36.5112 L97.4216,32.4042 Z" id="Fill-23" fill="#FFFFFF" mask="url(#mask-2)"></path>
                <path d="M111.8914,36.5107 L111.7974,35.7387 L111.7674,35.7387 C111.4554,36.1557 110.7404,36.6347 109.7174,36.6347 C108.4244,36.6347 107.8254,35.8697 107.8254,35.1517 C107.8254,33.9057 109.1314,33.1557 111.7474,33.1777 L111.7474,33.0337 C111.7474,32.4997 111.6224,31.4347 110.1034,31.4427 C109.5394,31.4427 108.9534,31.5697 108.4894,31.8457 L108.2874,31.4567 C108.8734,31.1227 109.5894,30.9907 110.1734,30.9907 C112.0284,30.9907 112.3834,32.1597 112.3834,33.1247 L112.3834,35.2297 C112.3834,35.6567 112.4054,36.0977 112.4774,36.5107 L111.8914,36.5107 Z M111.7474,33.6267 C110.3474,33.5937 108.4974,33.7707 108.4974,35.0667 C108.4974,35.8427 109.1084,36.1917 109.7784,36.1917 C110.8504,36.1917 111.4584,35.6337 111.6804,35.1087 C111.7274,34.9927 111.7474,34.8787 111.7474,34.7847 L111.7474,33.6267 Z" id="Fill-24" fill="#FFFFFF" mask="url(#mask-2)"></path>
                <polygon id="Fill-25" fill="#FFFFFF" mask="url(#mask-2)" points="114.3289 28.9335 119.5509 28.9335 119.5509 30.0725 115.9799 30.0725 115.9799 32.1635 119.2999 32.1635 119.2999 33.2925 115.9799 33.2925 115.9799 36.5115 114.3289 36.5115"></polygon>
                <path d="M122.540808,29.5058 C122.5428,29.9188 122.1858,30.2518 121.6018,30.2518 C121.0548,30.2518 120.6968,29.9188 120.697798,29.5058 C120.6968,29.0838 121.0668,28.7568 121.6218,28.7568 C122.1818,28.7568 122.5348,29.0798 122.540808,29.5058 L122.540808,29.5058 Z M120.7948,36.5118 L122.4448,36.5118 L122.4448,31.0368 L120.7948,31.0368 L120.7948,36.5118 Z" id="Fill-26" fill="#FFFFFF" mask="url(#mask-2)"></path>
                <path d="M124.2224,32.666 C124.2224,32.032 124.1984,31.512 124.1694,31.038 L125.6104,31.038 L125.6914,31.859 L125.7294,31.859 C126.0174,31.435 126.7244,30.914 127.8084,30.914 C128.9444,30.914 130.1254,31.528 130.1254,33.26 L130.1254,36.512 L128.4764,36.512 L128.4764,33.423 C128.4764,32.638 128.1324,32.039 127.2324,32.039 C126.5754,32.039 126.1204,32.428 125.9494,32.852 C125.8974,32.965 125.8724,33.133 125.8724,33.291 L125.8724,36.512 L124.2224,36.512 L124.2224,32.666 Z" id="Fill-27" fill="#FFFFFF" mask="url(#mask-2)"></path>
                <path d="M135.5505,36.5107 L135.4375,35.9017 L135.3975,35.9017 C135.0015,36.3337 134.3205,36.6347 133.4755,36.6347 C132.1525,36.6347 131.4195,35.8417 131.4195,35.0067 C131.4195,33.6247 132.8865,32.9267 135.2885,32.9347 L135.2885,32.8437 C135.2885,32.4837 135.1175,31.8857 133.9635,31.8897 C133.3245,31.8897 132.6545,32.0627 132.2095,32.2977 L131.8835,31.4007 C132.3755,31.1477 133.2205,30.9137 134.2465,30.9137 C136.3405,30.9137 136.9375,32.0207 136.9375,33.2217 L136.9375,35.1927 C136.9375,35.6907 136.9665,36.1727 137.0375,36.5107 L135.5505,36.5107 Z M135.3315,33.8297 C134.1685,33.8177 133.0545,34.0227 133.0545,34.8567 C133.0545,35.3927 133.4735,35.6457 133.9955,35.6457 C134.6545,35.6457 135.1275,35.2887 135.2855,34.8877 C135.3215,34.7907 135.3315,34.6827 135.3315,34.5867 L135.3315,33.8297 Z" id="Fill-28" fill="#FFFFFF" mask="url(#mask-2)"></path>
                <path d="M138.6804,32.666 C138.6804,32.032 138.6574,31.512 138.6274,31.038 L140.0684,31.038 L140.1494,31.859 L140.1884,31.859 C140.4764,31.435 141.1824,30.914 142.2664,30.914 C143.4034,30.914 144.5844,31.528 144.5844,33.26 L144.5844,36.512 L142.9354,36.512 L142.9354,33.423 C142.9354,32.638 142.5914,32.039 141.6914,32.039 C141.0344,32.039 140.5794,32.428 140.4074,32.852 C140.3564,32.965 140.3314,33.133 140.3314,33.291 L140.3314,36.512 L138.6804,36.512 L138.6804,32.666 Z" id="Fill-29" fill="#FFFFFF" mask="url(#mask-2)"></path>
                <path d="M151.1248,36.3466 C150.7828,36.4826 150.1038,36.6286 149.2828,36.6286 C147.2388,36.6286 145.9228,35.5286 145.9228,33.8296 C145.9228,32.1916 147.2558,30.9166 149.5498,30.9166 C150.1598,30.9166 150.7668,31.0296 151.1438,31.1666 L150.8508,32.2076 C150.5858,32.0986 150.1898,31.9926 149.6028,31.9926 C148.3448,31.9926 147.5988,32.7656 147.6058,33.7676 C147.6058,34.8916 148.4838,35.5346 149.6088,35.5346 C150.1728,35.5346 150.5818,35.4326 150.9038,35.3186 L151.1248,36.3466 Z" id="Fill-30" fill="#FFFFFF" mask="url(#mask-2)"></path>
                <path d="M154.105208,29.5058 C154.1072,29.9188 153.7492,30.2518 153.1652,30.2518 C152.6192,30.2518 152.2602,29.9188 152.262192,29.5058 C152.2602,29.0838 152.6302,28.7568 153.1842,28.7568 C153.7452,28.7568 154.0992,29.0798 154.105208,29.5058 L154.105208,29.5058 Z M152.3582,36.5118 L154.0082,36.5118 L154.0082,31.0368 L152.3582,31.0368 L152.3582,36.5118 Z" id="Fill-31" fill="#FFFFFF" mask="url(#mask-2)"></path>
                <path d="M156.947,34.1572 C156.99,35.1492 157.906,35.5832 158.961,35.5832 C159.719,35.5832 160.262,35.4832 160.761,35.3292 L161.006,36.2812 C160.446,36.4812 159.673,36.6302 158.725,36.6302 C156.607,36.6302 155.368,35.5312 155.368,33.8542 C155.368,32.3432 156.459,30.9142 158.556,30.9142 C160.678,30.9142 161.368,32.3772 161.368,33.5762 C161.368,33.8332 161.342,34.0392 161.31,34.1572 L156.947,34.1572 Z M159.815,33.1922 C159.822,32.6852 159.559,31.8582 158.455,31.8582 C157.439,31.8582 157.017,32.6322 156.943,33.1922 L159.815,33.1922 Z" id="Fill-32" fill="#FFFFFF" mask="url(#mask-2)"></path>
                <path d="M162.6921,32.7978 C162.6921,32.0638 162.6741,31.5258 162.6381,31.0378 L164.0671,31.0378 L164.1291,32.0778 L164.1751,32.0778 C164.4961,31.3068 165.2561,30.9138 165.9601,30.9138 C166.1211,30.9138 166.2151,30.9188 166.3471,30.9438 L166.3471,32.2468 C166.2071,32.2228 166.0621,32.2078 165.8631,32.2078 C165.0781,32.2078 164.5331,32.6278 164.3841,33.2548 C164.3571,33.3778 164.3431,33.5248 164.3431,33.6718 L164.3431,36.5108 L162.6921,36.5108 L162.6921,32.7978 Z" id="Fill-33" fill="#FFFFFF" mask="url(#mask-2)"></path>
                <path d="M171.0115,36.5107 L170.8995,35.9017 L170.8605,35.9017 C170.4635,36.3337 169.7825,36.6347 168.9385,36.6347 C167.6155,36.6347 166.8805,35.8417 166.8805,35.0067 C166.8805,33.6247 168.3475,32.9267 170.7495,32.9347 L170.7495,32.8437 C170.7495,32.4837 170.5795,31.8857 169.4255,31.8897 C168.7855,31.8897 168.1165,32.0627 167.6715,32.2977 L167.3455,31.4007 C167.8385,31.1477 168.6825,30.9137 169.7095,30.9137 C171.8015,30.9137 172.3995,32.0207 172.3995,33.2217 L172.3995,35.1927 C172.3995,35.6907 172.4285,36.1727 172.4995,36.5107 L171.0115,36.5107 Z M170.7925,33.8297 C169.6295,33.8177 168.5175,34.0227 168.5175,34.8567 C168.5175,35.3927 168.9365,35.6457 169.4565,35.6457 C170.1155,35.6457 170.5895,35.2887 170.7475,34.8877 C170.7825,34.7907 170.7925,34.6827 170.7925,34.5867 L170.7925,33.8297 Z" id="Fill-34" fill="#FFFFFF" mask="url(#mask-2)"></path>
            </g>
        </g>
    </g>
</svg>