<?xml version="1.0" encoding="UTF-8"?>
<svg width="51px" height="52px" viewBox="0 0 51 52" version="1.1" xmlns="http://www.w3.org/2000/svg" xmlns:xlink="http://www.w3.org/1999/xlink">
    <!-- Generator: Sketch 63.1 (92452) - https://sketch.com -->
    <title>noun_transaction_155688</title>
    <desc>Created with Sketch.</desc>
    <g id="Diseño-Desktop" stroke="none" stroke-width="1" fill="none" fill-rule="evenodd">
        <g id="moonk_producto01" transform="translate(-499.000000, -713.000000)" fill="#0095C7" fill-rule="nonzero">
            <g id="noun_transaction_155688" transform="translate(499.000000, 713.000000)">
                <g id="Group" transform="translate(0.000000, 0.451775)">
                    <path d="M8.90052213,0.256515833 C6.23829025,0.256515833 4.05286587,2.40537958 4.05286587,5.04783833 C4.05286587,7.69031833 6.23829025,9.83906875 8.90052213,9.83906875 C11.562754,9.83906875 13.7481791,7.69031833 13.7481791,5.04783833 C13.7481791,2.40537958 11.562754,0.256515833 8.90052213,0.256515833 Z M8.90052212,1.8501525 C10.7138972,1.8501525 12.1565031,3.27890333 12.1565031,5.04783833 C12.1565031,6.8167875 10.7138972,8.24543208 8.90052212,8.24543208 C7.08714771,8.24543208 5.64454046,6.8167875 5.64454046,5.04783833 C5.64454046,3.27890333 7.08714771,1.8501525 8.90052212,1.8501525 L8.90052212,1.8501525 Z M34.0498157,7.91935144 C33.8428564,7.92572595 33.6463726,8.01206889 33.5019638,8.16043208 L29.6441757,12.0178879 L25.5000099,12.0178879 C25.2128594,12.0141839 24.9459219,12.165244 24.8012666,12.4133072 C24.6566114,12.6613705 24.6566114,12.9680703 24.8012666,13.2161336 C24.9459219,13.4641969 25.2128594,13.615257 25.5000099,13.6115529 L29.583995,13.6115529 L33.5019638,17.5272196 C33.7019527,17.734873 33.9985081,17.8183306 34.2774539,17.7454606 C34.5563997,17.6725907 34.7742366,17.4547566 34.8470958,17.1758262 C34.919955,16.8968958 34.8364746,16.600366 34.6287953,16.4004029 L31.8397321,13.6115529 L44.4486193,13.6115529 L3.75611317,45.6420958 C3.49063583,45.8526279 3.3873137,46.2079941 3.49852833,46.5280334 C3.60974297,46.8480727 3.91117611,47.0628049 4.25000921,47.0633667 L19.7288917,47.0633667 L16.8651213,49.8813292 C16.6558046,50.0797235 16.5700157,50.3757186 16.6408039,50.655285 C16.7115921,50.9348514 16.9279106,51.1543614 17.2064247,51.2292509 C17.4849388,51.3041404 17.7821849,51.2227224 17.9836519,51.0163625 L21.8414413,47.2211125 C21.9628924,47.1951005 22.0765891,47.1410838 22.1734719,47.0633667 L25.5000099,47.0633667 C25.7870284,47.0668656 26.0537545,46.9157588 26.1982834,46.6677777 C26.3428122,46.4197966 26.3428122,46.1132576 26.1982834,45.8652765 C26.0537545,45.6172954 25.7870284,45.4661885 25.5000099,45.4696875 L21.8227626,45.4696875 L17.9836519,41.6932083 C17.83247,41.5403152 17.6259169,41.4549957 17.4108985,41.456625 C17.0867541,41.4591473 16.7964329,41.6577354 16.676601,41.9589057 C16.5567691,42.260076 16.6313049,42.6038158 16.8651213,42.8283125 L19.548351,45.4696875 L6.55140121,45.4696875 L47.2439074,13.4414396 C47.5113041,13.2313905 47.6159638,12.8748294 47.5045123,12.5535944 C47.3930608,12.2323594 47.0900509,12.0172182 46.7500106,12.0178879 L31.8978374,12.0178879 L34.6287953,9.28713542 C34.864082,9.05799713 34.9346921,8.70799351 34.8066442,8.40556593 C34.6785962,8.10313835 34.3781177,7.91023181 34.0498157,7.91935144 L34.0498157,7.91935144 Z M0.761606375,9.09207458 L0.761606375,9.09207458 C0.338510447,9.11076454 0.003961255,9.45714497 6.59357829e-06,9.88060542 L6.59357829e-06,17.8675029 C-0.000196171302,17.9476663 0.0116984615,18.0274017 0.0352912917,18.1040154 C0.0431131225,18.1285201 0.0521171404,18.1526317 0.0622717083,18.1762654 C0.0728706487,18.2002058 0.0846432659,18.2236092 0.0975467083,18.2463904 C0.135422133,18.3168491 0.183693013,18.3812026 0.240735583,18.4372862 C0.279545741,18.4740325 0.321954988,18.5067807 0.367322542,18.5350362 C0.389478574,18.5493846 0.412333981,18.5626231 0.435804208,18.5747029 C0.45945675,18.5867673 0.483697592,18.597642 0.508436,18.6072862 C0.558101094,18.6263064 0.609545825,18.6403068 0.662000542,18.6490779 C0.706498989,18.6573872 0.751624653,18.6618896 0.79688775,18.6625362 L17.0041636,18.6625362 C17.05717,18.6621294 17.1100036,18.6564345 17.161879,18.6455362 C17.2666305,18.6247555 17.3661355,18.583131 17.4544808,18.5231362 C17.4759977,18.5083463 17.4967746,18.4925078 17.5167362,18.4756779 C17.5578192,18.4415172 17.5953617,18.403311 17.6287967,18.3616362 C17.6615926,18.3196612 17.6900962,18.2745033 17.7138796,18.2268404 C17.7380977,18.1797582 17.7575621,18.1303794 17.7719842,18.0794362 C17.7862401,18.0279391 17.7952791,17.9751386 17.7989646,17.9218321 C17.8003215,17.9029735 17.8010188,17.8840727 17.8010188,17.8651654 L17.8010188,9.87821833 C17.7981923,9.69041561 17.7291042,9.50964922 17.6059501,9.36782875 C17.5539151,9.30718925 17.4930537,9.25472155 17.4254087,9.21218667 C17.3578468,9.17032775 17.2844017,9.13881221 17.2075126,9.11868667 C17.181531,9.11169229 17.1552117,9.10601835 17.128656,9.10168667 C16.9700412,9.0757066 16.8072768,9.09829973 16.6617368,9.16649917 C16.6382739,9.17846355 16.6154186,9.19158382 16.5932552,9.20581167 C16.5244268,9.24674362 16.4621626,9.29781693 16.4085615,9.35731 C16.3909185,9.37738109 16.3742965,9.398327 16.3587586,9.42006833 C16.312225,9.48547948 16.2758444,9.55754678 16.250849,9.63382917 C16.2420326,9.65823198 16.2344137,9.68305086 16.2280194,9.70819708 C16.2219329,9.73344274 16.2170845,9.75897085 16.2134915,9.78469 C16.2100462,9.81148125 16.2079658,9.83843036 16.2072581,9.86543292 C16.2072345,9.86897454 16.2072345,9.87251629 16.2072581,9.87605792 L16.2072581,17.0661654 L1.59373229,17.0661654 L1.59373229,9.87605792 C1.59069487,9.66058093 1.50049591,9.45552399 1.34371229,9.30766629 C1.18692867,9.15980858 0.976933521,9.08176189 0.761632583,9.09133083 L0.761606375,9.09207458 Z M42.0994984,32.8389708 C39.4372665,32.8389708 37.2518422,34.9877708 37.2518422,37.6302083 C37.2518422,40.272575 39.4372665,42.4193917 42.0994984,42.4193917 C44.7617296,42.4193917 46.9471547,40.272575 46.9471547,37.6302083 C46.9471547,34.9877708 44.7617296,32.8389708 42.0994984,32.8389708 Z M42.0994984,34.43265 C43.9128728,34.43265 45.3554801,35.8612875 45.3554801,37.6302083 C45.3554801,39.3990583 43.9128728,40.8257833 42.0994984,40.8257833 C40.2861226,40.8257833 38.8435167,39.3990583 38.8435167,37.6302083 C38.8435167,35.8612875 40.2861226,34.43265 42.0994984,34.43265 Z M33.960582,41.6723833 L33.960582,41.6723833 C33.5390574,41.6909782 33.2051072,42.0349311 33.1989855,42.4567917 L33.1989855,50.4457292 C33.1993146,50.6882219 33.3100681,50.9173657 33.4998883,51.0682833 C33.5211984,51.0852268 33.5433628,51.101067 33.5662946,51.1157417 C33.5884506,51.13009 33.611306,51.1433285 33.6347762,51.1554083 C33.6584699,51.1667521 33.6827101,51.1769173 33.707408,51.1858667 C33.7318996,51.1951168 33.7568323,51.2031543 33.7821152,51.20995 C33.8517507,51.2290347 33.9236573,51.2385663 33.9958605,51.2382895 L50.2031363,51.2382895 C50.2561428,51.2378765 50.3089763,51.2321816 50.3608517,51.2212833 C50.3874835,51.2155526 50.4138038,51.2084599 50.439709,51.2000333 C50.5157644,51.1762095 50.5878148,51.1411105 50.6534543,51.0959083 C50.674987,51.0808882 50.6957642,51.064813 50.7157097,51.0477417 C50.7568,51.0135364 50.7943429,50.9752825 50.8277709,50.9335583 C50.8440253,50.9130704 50.8592611,50.8917946 50.873423,50.8698083 C50.9166924,50.8024904 50.9495727,50.7290384 50.9709569,50.651925 C50.9850828,50.601073 50.9941207,50.5489433 50.9979373,50.4963042 C50.9993456,50.4767389 50.9999931,50.4571283 50.9999931,50.4375125 L50.9999931,42.4485042 C50.9999931,42.4229755 50.9984291,42.3974697 50.9958123,42.372075 C50.9892869,42.3191757 50.9774694,42.2670647 50.9605373,42.216525 C50.9527834,42.1912779 50.9437788,42.166432 50.9335569,42.1420792 C50.9222808,42.1180976 50.9098152,42.0946935 50.8962065,42.0719542 C50.8702164,42.0254488 50.8396272,41.9816672 50.8048981,41.9412667 C50.7698482,41.9015079 50.7309182,41.8653454 50.6886868,41.8333167 C50.6466793,41.8005451 50.6014905,41.7720692 50.5537989,41.7483167 C50.5301054,41.7369729 50.5058655,41.7268077 50.4811678,41.7178583 C50.3811455,41.6802535 50.2745805,41.6631504 50.1678132,41.6675667 C50.0885135,41.6710176 50.0101746,41.6862975 49.9353913,41.7129 C49.9099903,41.7217848 49.8850557,41.7319506 49.8606834,41.7433583 C49.8372562,41.7547454 49.8144015,41.7672743 49.7922017,41.7809 C49.6772263,41.8500552 49.5815772,41.9471226 49.5141249,42.0631 C49.5012215,42.0858813 49.4894489,42.1092847 49.4788499,42.133225 C49.468056,42.1561251 49.4583597,42.1795267 49.4497941,42.20335 C49.4321521,42.2538386 49.4196388,42.3059752 49.4124437,42.3589708 C49.4090714,42.3850367 49.4069911,42.4112535 49.4062103,42.437525 C49.4061867,42.4410666 49.4061867,42.4446084 49.4062103,42.44815 L49.4062103,49.6402125 L34.7926852,49.6402125 L34.7926852,42.44815 C34.7895819,42.2327066 34.6993465,42.0277054 34.5425585,41.8798999 C34.3857706,41.7320943 34.1757993,41.6540878 33.9605317,41.6636708 L33.960582,41.6723833 Z" id="Shape"></path>
                </g>
            </g>
        </g>
    </g>
</svg>