<?xml version="1.0" encoding="UTF-8"?>
<svg width="38px" height="51px" viewBox="0 0 38 51" version="1.1" xmlns="http://www.w3.org/2000/svg" xmlns:xlink="http://www.w3.org/1999/xlink">
    <!-- Generator: Sketch 63.1 (92452) - https://sketch.com -->
    <title>noun_funds_155693</title>
    <desc>Created with Sketch.</desc>
    <g id="Diseño-Desktop" stroke="none" stroke-width="1" fill="none" fill-rule="evenodd">
        <g id="moonk_producto01" transform="translate(-986.000000, -714.000000)" fill="#005672" fill-rule="nonzero">
            <g id="noun_funds_155693" transform="translate(986.000000, 714.000000)">
                <g id="Group" transform="translate(0.000000, 0.439565)">
                    <path d="M18.630156,0.249640982 C18.4241697,0.252384643 18.2277154,0.336918967 18.0841476,0.484654475 C17.9405798,0.632389983 17.8617004,0.831182308 17.8649168,1.03716081 L17.8649168,5.37418703 L16.4172212,5.37418703 L11.7914605,0.758521622 C11.6450362,0.608278042 11.4439817,0.523777416 11.234189,0.524307568 C10.9182815,0.524370313 10.6339946,0.716072995 10.5155229,1.00892455 C10.3970511,1.3017761 10.4680827,1.63722123 10.695088,1.85691689 L14.2204389,5.37418703 L11.2422649,5.37418703 C10.9626434,5.37022019 10.7025481,5.51712437 10.5615796,5.75864425 C10.4206112,6.00016412 10.4206112,6.29887872 10.5615796,6.54039859 C10.7025481,6.78191846 10.9626434,6.92882265 11.2422649,6.92485581 L15.9992665,6.92485581 C16.0715915,6.93512758 16.1450051,6.93512758 16.2173301,6.92485581 L20.7340603,6.92485581 C20.8560688,6.95496067 20.9835662,6.95496067 21.1055747,6.92485581 L25.7999848,6.92485581 C26.0796063,6.92882265 26.3397016,6.78191846 26.4806701,6.54039859 C26.6216385,6.29887872 26.6216385,6.00016412 26.4806701,5.75864425 C26.3397016,5.51712437 26.0796063,5.37022019 25.7999848,5.37418703 L22.8218108,5.37418703 L26.3471617,1.85691689 C26.5773172,1.63443959 26.6471069,1.29339983 26.5228477,0.998395803 C26.3985886,0.703391776 26.1058232,0.515064499 25.7858509,0.524307568 C25.5844923,0.53017563 25.3933207,0.614174702 25.2528085,0.758521622 L20.6270479,5.37418703 L19.415587,5.37418703 L19.415587,1.03716081 C19.4188582,0.827681357 19.3372249,0.625792485 19.1892731,0.477459691 C19.0413214,0.329126897 18.8396431,0.246974608 18.630156,0.249640982 L18.630156,0.249640982 Z M11.3250476,10.2301225 C11.0702139,10.2301225 10.8316935,10.3555181 10.6870121,10.5652978 C10.6870121,10.5652978 7.28769669,15.4969772 4.3591485,21.6380664 C1.43060031,27.7790108 -1.17022464,35.1308676 0.900427743,40.3389324 C2.17228711,43.5380108 4.95646532,45.9059959 8.19544018,47.4825162 C11.4344164,49.0589676 15.1512254,49.8603568 18.46459,49.8712227 C21.8174099,49.8821351 25.5920019,49.0976311 28.8831525,47.5249703 C32.1743038,45.9522405 35.0074841,43.5742622 36.3053693,40.341 C38.3940212,35.1379662 35.7933817,27.7848 32.8607818,21.6420636 C29.9281832,15.4992515 26.5208043,10.5652978 26.5208043,10.5652978 C26.3757177,10.3549293 26.1362966,10.2295533 25.8807488,10.2301225 L11.3250476,10.2301225 L11.3250476,10.2301225 Z M11.7470395,11.7808001 L25.4567382,11.7808001 C25.780826,12.2556101 28.7403236,16.6145664 31.4595264,22.3104393 C34.3300104,28.3230568 36.5804385,35.4920716 34.8657496,39.7635284 C33.7625665,42.5117392 31.2663701,44.6664892 28.2128113,46.1257095 C25.1592531,47.5848608 21.5744232,48.3307014 18.4706479,48.320537 C15.4070359,48.3100946 11.8764258,47.5486784 8.87385872,46.0873216 C5.8712923,44.6258959 3.42003381,42.4819662 2.34004747,39.765527 C0.638811527,35.486627 2.89171241,28.3155446 5.75838519,22.3043745 C8.47271753,16.6125677 11.4212377,12.2589182 11.7470395,11.7808001 L11.7470395,11.7808001 Z M18.46459,19.639142 C18.0371922,19.6458272 17.6958122,19.9971281 17.7013701,20.424542 L17.7013701,22.7021055 C15.7939074,23.1225109 14.4991408,24.9836595 14.6303169,27.0270365 C14.7659273,29.1394703 16.3987295,30.8579635 18.4383422,30.8794662 C18.4857344,30.8796589 18.5330444,30.8755064 18.5796784,30.8670608 C18.5984323,30.8700496 18.6172898,30.8723485 18.6362126,30.8739527 C19.6298518,30.8877365 20.5251257,31.5386757 20.8834724,32.5538514 C21.2418184,33.569027 20.9601681,34.7145973 20.1989959,35.41695 C19.4378292,36.1191649 18.3812842,36.2494216 17.4913818,35.7621649 C16.6014786,35.274977 16.0692296,34.2433986 16.1870423,33.163577 C16.2287053,32.8824414 16.1132291,32.6010401 15.8860959,32.4302081 C15.6589627,32.259376 15.3565724,32.2264902 15.0980265,32.3445032 C14.8394806,32.4625163 14.6662129,32.7125158 14.6464681,32.9960351 C14.4627137,34.6802757 15.2834071,36.3222 16.7463338,37.1230378 C17.0345176,37.2808622 17.3387794,37.3856878 17.6468518,37.4643243 L17.6468518,39.6792405 C17.6428992,39.9588531 17.7898066,40.2189338 18.0313209,40.3598936 C18.2728351,40.5008533 18.5715387,40.5008533 18.813053,40.3598936 C19.0545672,40.2189338 19.2014747,39.9588531 19.197522,39.6792405 L19.197522,37.5430297 C19.9465376,37.4259365 20.6645846,37.0967108 21.2509488,36.5556973 C22.482166,35.4197068 22.9079925,33.6310541 22.3453013,32.0369595 C21.7826107,30.4428649 20.3190554,29.346227 18.6584224,29.323277 C18.6117665,29.3225241 18.5651379,29.3259841 18.5191041,29.3336149 C18.4975763,29.3327172 18.4760205,29.3327172 18.4544927,29.3336149 C17.2819627,29.3212095 16.2659042,28.318577 16.1769471,26.9328932 C16.0879893,25.5471405 16.9813521,24.3782068 18.1435512,24.1869568 C19.3057502,23.9957068 20.4295662,24.7968203 20.7179064,26.1454946 C20.774672,26.4177018 20.972846,26.6386748 21.2372901,26.7246309 C21.5017341,26.810587 21.791959,26.7483653 21.9979249,26.5615576 C22.2038907,26.3747498 22.2940621,26.0919581 22.2342501,25.8204041 C21.8948769,24.2329946 20.6998655,23.0287812 19.2520382,22.7029326 L19.2520382,20.4293664 C19.2547621,20.2198853 19.1726067,20.0182158 19.0242757,19.8702709 C18.8759448,19.7223261 18.6740619,19.6406965 18.4645886,19.6439664 L18.46459,19.639142 Z" id="Shape"></path>
                </g>
            </g>
        </g>
    </g>
</svg>