<?xml version="1.0" encoding="UTF-8"?>
<svg width="51px" height="52px" viewBox="0 0 51 52" version="1.1" xmlns="http://www.w3.org/2000/svg" xmlns:xlink="http://www.w3.org/1999/xlink">
    <!-- Generator: Sketch 63.1 (92452) - https://sketch.com -->
    <title>noun_Profit_155703</title>
    <desc>Created with Sketch.</desc>
    <g id="Diseño-Desktop" stroke="none" stroke-width="1" fill="none" fill-rule="evenodd">
        <g id="moonk_producto01" transform="translate(-743.000000, -713.000000)" fill="#00759C" fill-rule="nonzero">
            <g id="noun_Profit_155703" transform="translate(743.000000, 713.000000)">
                <g id="Group" transform="translate(0.000000, 0.451775)">
                    <path d="M50.2121612,0.256615 C50.1718511,0.256615 50.1316293,0.260469489 50.0918423,0.266956667 L34.396462,2.48931 C34.2261593,2.51343953 34.0682374,2.5920527 33.9463027,2.71339833 L20.7444257,15.9189062 L12.1146625,15.9189062 C11.9029215,15.918904 11.69989,16.0032166 11.5504092,16.1532229 L2.59288108,25.11325 C2.36583909,25.3413969 2.29832444,25.6837758 2.42175316,25.9810702 C2.54518189,26.2783647 2.83530995,26.4721798 3.15713446,26.4723292 L11.7868976,26.4723292 L16.066513,30.7177958 C16.0671868,30.7201601 16.0678715,30.7225212 16.0685672,30.7248792 L16.0706213,30.7248792 C16.0883544,30.744449 16.1070491,30.7631248 16.1266363,30.7808375 L20.5473149,35.2048042 C20.553454,35.2103312 20.5596786,35.2157624 20.5659866,35.2210958 L24.791666,39.4478625 L24.791666,48.0799667 C24.7918145,48.4024276 24.9862298,48.6930164 25.284185,48.8161256 C25.5821403,48.9392348 25.9249011,48.8705965 26.1525131,48.6422417 L35.1100405,39.6823208 C35.2593033,39.5324873 35.3428885,39.329442 35.3423802,39.1179208 L35.3423802,30.49205 L48.5463326,17.2845729 C48.6688072,17.1623502 48.7481782,17.0035704 48.7724496,16.8322312 L50.9921248,1.16998958 C51.0243566,0.942905709 50.957207,0.712941021 50.8078496,0.538909717 C50.6584923,0.364878414 50.4414113,0.263657362 50.2121258,0.261134167 L50.2121258,0.259009167 L50.2121612,0.256615 Z M49.2662075,1.99340583 L47.2311595,16.3400813 L34.1164096,29.4604333 L21.3252753,33.7246708 L17.5414557,29.9397625 L21.7692105,17.1451729 L34.8839603,4.02693167 L49.2662075,1.99340583 Z M39.053629,11.2438496 C38.8466138,11.2482481 38.6494437,11.3330947 38.5038964,11.4804117 L36.2323607,13.7193471 C35.5700364,13.3309538 34.8181604,13.1565692 34.0749197,13.2088938 L34.0749197,13.2067688 C33.130217,13.2737063 32.2082963,13.6935425 31.5378525,14.4601646 C31.5350577,14.4636828 31.5322927,14.4672246 31.5295579,14.4707896 C30.364045,15.8447438 30.3619129,17.8253146 31.4175364,19.1706521 C31.4668535,19.2712757 31.5368337,19.3603632 31.6229077,19.4320979 C32.5388181,20.2093521 32.6186034,21.4757813 31.8345032,22.4056812 C31.0577718,23.2896813 29.7808132,23.3990479 28.8597249,22.6234937 C28.8202282,22.5880771 28.7882718,22.5484812 28.7518521,22.5114354 C28.7118411,22.457333 28.66514,22.4085181 28.6128636,22.3661562 C28.092845,21.7380062 27.9743493,20.9121604 28.3099923,20.1687646 C28.4306664,19.9087193 28.4023897,19.6038779 28.2359444,19.3704799 C28.069499,19.1370819 27.790543,19.0111061 27.5054455,19.0405887 C27.220348,19.0700712 26.9730574,19.2504672 26.8578686,19.5129896 C26.3525458,20.6323687 26.4552654,21.9004979 27.0632407,22.9223396 L24.8000016,25.1881917 C24.5914756,25.3879524 24.5073238,25.6849336 24.5800482,25.9644318 C24.6527727,26.2439299 24.8709894,26.4621934 25.1504162,26.5349221 C25.4298431,26.6076507 25.7267396,26.5234599 25.9264351,26.3148667 L28.1647798,24.0760021 C29.708413,25.112825 31.8011888,24.8671042 33.0376923,23.4535187 C33.0404871,23.4500005 33.0432521,23.4464587 33.0459869,23.4428937 C34.2016597,22.0804146 34.2327343,20.1118146 33.1683813,18.7511771 C33.1170477,18.6465687 33.0434024,18.5544946 32.9526357,18.4814437 C32.087488,17.7512229 31.9687486,16.4228146 32.7431163,15.5059479 C33.508785,14.6371771 34.8438963,14.5609604 35.7178946,15.2921729 C36.4403429,15.9384562 36.6507597,16.8962646 36.2676272,17.7447771 C36.1469531,18.0048223 36.1752298,18.3096637 36.3416751,18.5430618 C36.5081205,18.7764598 36.7870765,18.9024355 37.072174,18.872953 C37.3572715,18.8434705 37.6045621,18.6630745 37.7197509,18.4005521 C38.2552672,17.2144479 38.1007067,15.8650021 37.3919859,14.8149687 L39.6220325,12.6153812 C39.8588203,12.3880124 39.9319611,12.0386518 39.8062713,11.7353551 C39.6805815,11.4320585 39.3817911,11.2369137 39.0536297,11.2437929 L39.053629,11.2438496 Z M12.4445022,17.5124437 L19.9706508,17.5124437 L16.2781085,28.6864375 L12.6747679,25.1111958 C12.5259918,24.9629052 12.3246917,24.8793798 12.1146625,24.8787917 L5.080161,24.8787917 L12.4445022,17.5124437 L12.4445022,17.5124437 Z M33.7492288,31.2656917 L33.7492288,38.7855 L26.384889,46.1540083 L26.384889,39.1155125 C26.3848714,38.9046781 26.3013258,38.7024428 26.1525485,38.5530958 L22.5865485,34.9862125 L33.7492288,31.2656917 L33.7492288,31.2656917 Z M12.1437056,33.830425 C11.8191476,33.8305001 11.5270803,34.0275082 11.4053626,34.3284592 C11.283645,34.6294102 11.3566125,34.9741338 11.5898237,35.1999167 L16.0685877,39.6799125 C16.2685341,39.8874429 16.5649278,39.9708058 16.8437012,39.8979191 C17.1224746,39.8250323 17.3401763,39.6072564 17.4130236,39.3284027 C17.4858708,39.049549 17.4025092,38.7530813 17.1950205,38.5530958 L12.7162564,34.0732417 C12.5661734,33.918059 12.3595611,33.830425 12.1437056,33.830425 L12.1437056,33.830425 Z M7.31643167,37.5218333 C7.10925993,37.5284044 6.91280505,37.6154817 6.76877313,37.7645792 L0.259111167,44.3155292 C0.0423567641,44.513729 -0.0478103051,44.815136 0.024478369,45.0998507 C0.0967670431,45.3845655 0.319787408,45.6064118 0.604822088,45.6771393 C0.889856768,45.7478669 1.19067775,45.6560048 1.38761862,45.4380958 L7.89935529,38.8872167 C8.1336467,38.6573366 8.20303144,38.3072651 8.07414018,38.0053628 C7.94524891,37.7034605 7.64445971,37.5115128 7.31643167,37.5218333 L7.31643167,37.5218333 Z M12.9257779,43.0933 C12.7196143,43.0998798 12.524038,43.1861863 12.380194,43.3340625 L5.83111617,49.8848708 C5.6230912,50.0847405 5.53932116,50.3814737 5.61210482,50.6606605 C5.68488849,50.9398474 5.90285617,51.1578755 6.18196722,51.230681 C6.46107826,51.3034864 6.75773216,51.2196961 6.95754963,51.0116167 L13.5066268,44.4607375 C13.7421527,44.2313456 13.8126358,43.8808047 13.6840845,43.5781685 C13.5555331,43.2755323 13.2543471,43.082951 12.9257779,43.0933 L12.9257779,43.0933 Z" id="Shape"></path>
                </g>
            </g>
        </g>
    </g>
</svg>