<?xml version="1.0" encoding="UTF-8"?>
<svg width="275px" height="80px" viewBox="0 0 275 80" version="1.1" xmlns="http://www.w3.org/2000/svg" xmlns:xlink="http://www.w3.org/1999/xlink">
    <!-- Generator: Sketch 63.1 (92452) - https://sketch.com -->
    <title>Group 20 Copy</title>
    <desc>Created with Sketch.</desc>
    <defs>
        <polygon id="path-1" points="0.389423077 0.21216 49.4921154 0.21216 49.4921154 51.3674909 0.389423077 51.3674909"></polygon>
    </defs>
    <g id="Diseño-Desktop" stroke="none" stroke-width="1" fill="none" fill-rule="evenodd">
        <g id="moonk_producto01" transform="translate(-583.000000, -199.000000)">
            <g id="Group-20-Copy" transform="translate(583.000000, 199.000000)">
                <g id="Group-9" fill="#FFFFFF">
                    <path d="M49.2120143,0.788753571 C48.3819964,0.788753571 47.6068714,1.02536071 46.8838,1.498575 C46.1597821,1.97368214 45.6335679,2.58980714 45.300425,3.34884286 L26.4911036,45.8387536 C26.3964607,46.0999679 26.3198,46.3545571 26.260175,46.6025214 C26.2014964,46.8514321 26.1589071,47.1060214 26.1352464,47.3672357 C26.1115857,47.1060214 26.0699429,46.8514321 26.0103179,46.6025214 C25.9516393,46.3545571 25.8749786,46.0999679 25.7803357,45.8387536 L7.07606786,3.34884286 C6.81485357,2.638075 6.3123,2.03236071 5.56556786,1.53548571 C4.81883571,1.03671786 4.01815714,0.788753571 3.165425,0.788753571 L0.000567857143,0.788753571 L0.000567857143,51.7406821 L4.44499643,51.7406821 L4.44499643,7.82734286 C4.46865714,8.04312857 4.52733571,8.33178929 4.622925,8.69900357 C4.71662143,9.06716429 4.848175,9.40503929 5.0138,9.713575 L23.5401393,51.7406821 L28.7663179,51.7406821 L47.3996036,9.713575 C47.4696393,9.57066429 47.5358893,9.39273571 47.5945679,9.17978929 C47.6541929,8.96684286 47.7128714,8.75768214 47.7724964,8.55798571 C47.8302286,8.35734286 47.8851214,8.11221786 47.9324429,7.82734286 L47.9324429,51.7406821 L52.3768714,51.7406821 L52.3768714,0.788753571 L49.2120143,0.788753571 Z" id="Fill-1"></path>
                    <path d="M76.3515161,43.7403321 C74.0516946,42.7446893 72.0424268,41.3884571 70.3237125,39.6687964 C68.6040518,37.9510286 67.2487661,35.9427071 66.2531232,33.6419393 C65.2565339,31.3430643 64.7587125,28.8776179 64.7587125,26.2465464 C64.7587125,23.615475 65.2565339,21.1500286 66.2531232,18.8502071 C67.2487661,16.5513321 68.6040518,14.5430107 70.3237125,12.8242964 C72.0424268,11.1055821 74.0516946,9.74745714 76.3515161,8.75276071 C78.6503911,7.75617143 81.1158375,7.26024286 83.7469089,7.26024286 C86.3798732,7.26024286 88.8434268,7.75617143 91.1432482,8.75276071 C93.4421232,9.74745714 95.4513911,11.1055821 97.1701054,12.8242964 C98.8878732,14.5430107 100.245052,16.5513321 101.241641,18.8502071 C102.237284,21.1500286 102.736052,23.615475 102.736052,26.2465464 C102.736052,28.8776179 102.237284,31.3430643 101.241641,33.6419393 C100.245052,35.9427071 98.8878732,37.9510286 97.1701054,39.6687964 C95.4513911,41.3884571 93.4421232,42.7446893 91.1432482,43.7403321 C88.8434268,44.7369214 86.3798732,45.2337964 83.7469089,45.2337964 C81.1158375,45.2337964 78.6503911,44.7369214 76.3515161,43.7403321 M76.8313554,1.14442143 C74.6148196,1.76054643 72.5402482,2.63788571 70.6085875,3.77454643 C68.6769268,4.9131 66.9213018,6.26933214 65.3454982,7.84608214 C63.7696946,9.42283214 62.4115696,11.1775107 61.2739625,13.108225 C60.1363554,15.0408321 59.2590161,17.1144571 58.6438375,19.3309929 C58.0267661,21.5475286 57.7182304,23.8520821 57.7182304,26.2465464 C57.7182304,29.8505464 58.3996589,33.22835 59.7644089,36.3809036 C61.1253732,39.5334571 62.9869982,42.2885107 65.3454982,44.6470107 C67.7039982,47.0074036 70.4599982,48.8671357 73.6125518,50.2299929 C76.7651054,51.59285 80.1438554,52.2742786 83.7469089,52.2742786 C86.1413732,52.2742786 88.4468732,51.9657429 90.6634089,51.3505643 C92.8789982,50.7334929 94.9526232,49.8561536 96.8852304,48.7185464 C98.8168911,47.5809393 100.57157,46.2247071 102.14832,44.6470107 C103.724123,43.0712071 105.082248,41.3165286 106.219855,39.3839214 C107.357462,37.4532071 108.234802,35.3795821 108.850927,33.1621 C109.466105,30.9465107 109.775587,28.6419571 109.775587,26.2465464 C109.775587,23.8520821 109.466105,21.5475286 108.850927,19.3309929 C108.234802,17.1144571 107.357462,15.0408321 106.219855,13.108225 C105.082248,11.1775107 103.724123,9.42283214 102.14832,7.84608214 C100.57157,6.26933214 98.8168911,4.9131 96.8852304,3.77454643 C94.9526232,2.63788571 92.8789982,1.76054643 90.6634089,1.14442143 C88.4468732,0.52735 86.1413732,0.219760714 83.7469089,0.219760714 C81.3524446,0.219760714 79.0478911,0.52735 76.8313554,1.14442143" id="Fill-3"></path>
                    <path d="M133.749096,43.7403321 C131.450221,42.7446893 129.440954,41.3884571 127.723186,39.6687964 C126.003525,37.9510286 124.647293,35.9427071 123.65165,33.6419393 C122.655061,31.3430643 122.157239,28.8776179 122.157239,26.2465464 C122.157239,23.615475 122.655061,21.1500286 123.65165,18.8502071 C124.647293,16.5513321 126.003525,14.5430107 127.723186,12.8242964 C129.440954,11.1055821 131.450221,9.74745714 133.749096,8.75276071 C136.047971,7.75617143 138.514364,7.26024286 141.146382,7.26024286 C143.7784,7.26024286 146.241007,7.75617143 148.541775,8.75276071 C150.841596,9.74745714 152.850864,11.1055821 154.568632,12.8242964 C156.2864,14.5430107 157.644525,16.5513321 158.640168,18.8502071 C159.635811,21.1500286 160.133632,23.615475 160.133632,26.2465464 C160.133632,28.8776179 159.635811,31.3430643 158.640168,33.6419393 C157.644525,35.9427071 156.2864,37.9510286 154.568632,39.6687964 C152.850864,41.3884571 150.841596,42.7446893 148.541775,43.7403321 C146.241007,44.7369214 143.7784,45.2337964 141.146382,45.2337964 C138.514364,45.2337964 136.047971,44.7369214 133.749096,43.7403321 M134.229882,1.14442143 C132.013346,1.76054643 129.939721,2.63788571 128.008061,3.77454643 C126.075454,4.9131 124.319829,6.26933214 122.744025,7.84608214 C121.168221,9.42283214 119.810096,11.1775107 118.673436,13.108225 C117.534882,15.0408321 116.657543,17.1144571 116.041418,19.3309929 C115.425293,21.5475286 115.117704,23.8520821 115.117704,26.2465464 C115.117704,29.8505464 115.798186,33.22835 117.161989,36.3809036 C118.524846,39.5334571 120.385525,42.2885107 122.744025,44.6470107 C125.102525,47.0074036 127.858525,48.8671357 131.012025,50.2299929 C134.163632,51.59285 137.541436,52.2742786 141.146382,52.2742786 C143.540846,52.2742786 145.8454,51.9657429 148.061936,51.3505643 C150.278471,50.7334929 152.35115,49.8561536 154.283757,48.7185464 C156.216364,47.5809393 157.970096,46.2247071 159.546846,44.6470107 C161.123596,43.0712071 162.480775,41.3165286 163.618382,39.3839214 C164.756936,37.4532071 165.632382,35.3795821 166.249454,33.1621 C166.865579,30.9465107 167.174114,28.6419571 167.174114,26.2465464 C167.174114,23.8520821 166.865579,21.5475286 166.249454,19.3309929 C165.632382,17.1144571 164.756936,15.0408321 163.618382,13.108225 C162.480775,11.1775107 161.123596,9.42283214 159.546846,7.84608214 C157.970096,6.26933214 156.216364,4.9131 154.283757,3.77454643 C152.35115,2.63788571 150.278471,1.76054643 148.061936,1.14442143 C145.8454,0.52735 143.540846,0.219760714 141.146382,0.219760714 C138.750971,0.219760714 136.446418,0.52735 134.229882,1.14442143" id="Fill-5"></path>
                    <path d="M211.856238,52.3686375 L184.864095,16.9542268 L184.864095,52.3686375 L172.022005,52.3686375 L172.022005,1.16022679 L184.707934,1.16022679 C185.969523,1.16022679 187.084416,1.32585179 188.058291,1.65994107 C189.02838,1.99308393 189.777005,2.50604821 190.305113,3.19599464 L210.043827,29.4272089 C210.33438,29.8076732 210.583291,30.2250482 210.793398,30.6764946 C211.003505,31.1298339 211.187113,31.5519411 211.343273,31.9447089 C211.50322,32.3384232 211.621523,32.6791375 211.698184,32.9640125 C211.775791,33.2498339 211.816488,33.4287089 211.816488,33.4996911 L211.856238,52.3686375 Z" id="Fill-7"></path>
                </g>
                <g id="Group-12" transform="translate(225.000000, 1.000000)">
                    <mask id="mask-2" fill="white">
                        <use xlink:href="#path-1"></use>
                    </mask>
                    <g id="Clip-11"></g>
                    <path d="M22.9863462,4.17645091 C23.4863462,3.67725091 24.0748077,3.18750545 24.7526923,2.71288727 C25.4305769,2.23543273 26.1632692,1.81376 26.9498077,1.44408727 C27.7315385,1.07536 28.5642308,0.777541818 29.4382692,0.552523636 C30.3132692,0.32656 31.2151923,0.21216 32.1430769,0.21216 L47.8882692,0.21216 L21.4469231,25.0587055 L49.4921154,51.3688145 L33.7517308,51.3688145 C31.6440385,51.3688145 29.8767308,51.0076509 28.4469231,50.2805964 C27.0190385,49.5544873 25.6978846,48.5712145 24.4853846,47.3355055 C24.4853846,47.3355055 0.423846154,25.0823418 0.388269231,25.0587055 C0.423846154,25.0587055 22.9863462,4.17645091 22.9863462,4.17645091" id="Fill-10" fill="#00A4DC" mask="url(#mask-2)"></path>
                </g>
                <g id="Group-19" transform="translate(159.000000, 1.000000)">
                    <polygon id="Fill-13" fill="#00A4DC" points="66.8991371 51.0939524 54.0862517 51.0939524 54.0464778 0.0878745546 66.8991371 0.0878745546"></polygon>
                    <path d="M13.841386,73.5058195 C12.5894544,73.5058195 11.4502155,72.7884331 11.4502155,71.1924605 C11.4502155,68.7131883 14.4408358,68.2239326 16.963639,68.2239326 C17.1520916,68.2239326 17.3386502,68.2267607 17.5223679,68.2324168 L17.5223679,70.6145921 C17.5223679,70.8050153 17.484488,71.042573 17.3964171,71.2791879 C16.9835259,72.361395 15.8433401,73.5058195 13.841386,73.5058195 L13.841386,73.5058195 Z M14.5800445,62.8072412 C13.4909966,62.8072412 12.1519412,63.0787357 11.0562643,63.7668987 L11.4312756,64.5653563 C12.3015669,63.9988002 13.3972438,63.738618 14.4484118,63.738618 L14.4815567,63.738618 C17.2922473,63.738618 17.5223679,65.9171725 17.5223679,67.0116345 L17.5223679,67.3066962 C17.451343,67.3057535 17.3793712,67.3057535 17.3092933,67.3057535 C12.5629384,67.3057535 10.191655,68.841394 10.191655,71.3659153 C10.191655,72.8468799 11.3129008,74.4192852 13.7286932,74.4192852 C15.6378415,74.4192852 16.9778439,73.4304044 17.5593008,72.5753854 L17.6151737,72.5753854 L17.7913154,74.1657019 L18.8860453,74.1657019 C18.7487305,73.3153963 18.7108506,72.4066441 18.7108506,71.5280578 L18.7108506,67.1973442 C18.7108506,65.2129837 18.0470049,62.8072412 14.5800445,62.8072412 L14.5800445,62.8072412 Z M27.8067681,62.8072412 C24.213857,62.8072412 21.609612,65.2073276 21.609612,68.7405263 C21.609612,72.0776456 23.9202876,74.407973 27.3806189,74.407973 C29.1212016,74.407973 30.3788152,73.9281442 30.8920882,73.6849305 L30.5672678,72.8185992 C29.9223621,73.0834948 28.9961978,73.4596278 27.5614956,73.4596278 C24.7953139,73.4596278 22.8122997,71.5629373 22.8122997,68.6547415 C22.8122997,66.0406647 24.4648115,63.7621852 27.6874464,63.7621852 C29.0274488,63.7621852 29.946984,64.0968399 30.5360169,64.4088699 L30.9612191,63.4954042 C30.491508,63.1946864 29.2840853,62.8072412 27.8067681,62.8072412 L27.8067681,62.8072412 Z M46.2258827,73.5058195 C43.7542175,73.5058195 41.8384402,71.4243621 41.8384402,68.6481427 C41.8384402,66.2546552 43.2286335,63.7216496 46.2893316,63.7216496 C49.4551465,63.7216496 50.6957142,66.5318057 50.6957142,68.5614153 C50.6957142,71.406451 48.7240639,73.5058195 46.2258827,73.5058195 L46.2258827,73.5058195 Z M46.3205826,62.8072412 C43.3346973,62.8072412 40.6366995,64.9009536 40.6366995,68.6999906 C40.6366995,72.1879402 43.0344989,74.4192852 46.1444409,74.4192852 C48.8234988,74.4192852 51.8974548,72.6564567 51.8974548,68.5095674 C51.8974548,65.1092879 49.6379172,62.8072412 46.3205826,62.8072412 L46.3205826,62.8072412 Z M35.692422,59.8462548 L34.5029923,60.2054194 L34.5029923,63.0617673 L32.4764162,63.0617673 L32.4764162,63.9526084 L34.5029923,63.9526084 L34.5029923,70.972814 C34.5029923,72.1068689 34.6914449,73.0373031 35.2359689,73.6217703 C35.70568,74.1534469 36.4310806,74.407973 37.3070539,74.407973 C38.0334015,74.407973 38.5779254,74.2920222 38.9661947,74.1421347 L38.822251,73.2918291 C38.5154236,73.3898688 38.0779104,73.4662266 37.4576266,73.4662266 C36.1678151,73.4662266 35.692422,72.5810415 35.692422,71.169836 L35.692422,63.9526084 L39.1158204,63.9526084 L39.1158204,63.0617673 L35.692422,63.0617673 L35.692422,59.8462548 Z M9.26549075,58.5745673 L0.927171765,58.5745673 L0.927171765,74.1657019 L2.11754848,74.1657019 L2.11754848,66.6241893 L8.67740488,66.6241893 L8.67740488,65.6928125 L2.11754848,65.6928125 L2.11754848,59.5050014 L9.26549075,59.5050014 L9.26549075,58.5745673 Z" id="Fill-15" fill="#FFFFFF"></path>
                    <path d="M63.5219522,74.1649477 L66.6063253,74.1649477 L66.6063253,62.903584 L63.5219522,62.903584 L63.5219522,74.1649477 Z M60.6866397,62.649058 C59.3712592,62.649058 57.9498149,63.4578852 57.3494181,65.0444309 L57.2632412,65.0444309 L57.1486545,62.903584 L54.4800136,62.903584 C54.5453565,63.9066052 54.5794484,65.0161503 54.5794484,66.5244528 L54.5794484,74.1649477 L57.6638215,74.1649477 L57.6638215,68.3249889 C57.6638215,68.018615 57.6912844,67.7178971 57.7433693,67.4671418 C58.0179988,66.1756578 59.0379158,65.3121546 60.505763,65.3121546 C60.8769863,65.3121546 61.1459338,65.3423207 61.4091993,65.3932259 L61.4091993,62.7112755 C61.1639267,62.6603703 60.9868381,62.649058 60.6866397,62.649058 L60.6866397,62.649058 Z M76.632195,62.649058 C74.6065659,62.649058 73.2864505,63.7208955 72.7476085,64.5947682 L72.6756366,64.5947682 L72.5241169,62.903584 L69.8308541,62.903584 C69.886727,63.8792672 69.9312359,64.9520474 69.9312359,66.2520156 L69.9312359,74.1649477 L73.015609,74.1649477 L73.015609,67.5387862 C73.015609,67.2145012 73.0620119,66.8685343 73.1567117,66.6356901 C73.4786911,65.7646454 74.3281485,64.9643024 75.5545111,64.9643024 C77.2373269,64.9643024 77.8803386,66.1954543 77.8803386,67.8112234 L77.8803386,74.1649477 L80.9647117,74.1649477 L80.9647117,67.4756261 C80.9647117,63.913204 78.7563119,62.649058 76.632195,62.649058 L76.632195,62.649058 Z M89.5729252,71.9713103 C87.6391549,71.9713103 86.5917749,70.416816 86.5917749,68.5050425 C86.5917749,66.2058239 87.8777984,64.8238417 89.5852361,64.8238417 C90.8977756,64.8238417 91.7775369,65.6091017 92.1033043,66.6545439 C92.1743292,66.8826746 92.2008451,67.1475703 92.2008451,67.4218928 L92.2008451,69.2459961 C92.2008451,69.5665104 92.1610712,69.9501849 92.0625834,70.2452466 C91.7121941,71.2822045 90.7292099,71.9713103 89.5729252,71.9713103 L89.5729252,71.9713103 Z M88.9848393,62.649058 C86.0718729,62.649058 83.4695219,64.8832311 83.4695219,68.5993114 C83.4695219,71.7761736 85.6229958,74.0933034 88.642973,74.0933034 C90.2585518,74.0933034 91.5000665,73.4239941 92.1932691,72.4407694 L92.24346,72.4407694 L92.24346,73.4023123 C92.24346,75.8278513 90.7424679,76.8063625 88.7405138,76.8063625 C87.2707726,76.8063625 85.9705441,76.3708402 85.1845356,75.9362605 L84.5206899,78.1082161 C85.5652289,78.6889126 87.2130057,79 88.7622947,79 C90.4413225,79 92.2055801,78.675715 93.4792927,77.6312155 C94.7634222,76.5650341 95.2814302,74.8879903 95.2814302,72.5265541 L95.2814302,66.1370076 C95.2814302,64.5966536 95.3259391,63.6615061 95.384653,62.903584 L92.6923372,62.903584 L92.5796444,64.4024597 L92.5304005,64.4024597 C91.9451556,63.4710829 90.8561077,62.649058 88.9848393,62.649058 L88.9848393,62.649058 Z M65.0665062,58.2127632 C64.0314372,58.2127632 63.3372876,58.8849005 63.3401196,59.7521745 C63.3372876,60.60248 64.0077623,61.287815 65.0305203,61.287815 C66.1214622,61.287815 66.7900429,60.60248 66.786271,59.7521745 C66.774891,58.8764163 66.1129392,58.2127632 65.0665062,58.2127632 L65.0665062,58.2127632 Z" id="Fill-17" fill="#00A4DC"></path>
                </g>
            </g>
        </g>
    </g>
</svg>