<?xml version="1.0" encoding="UTF-8"?>
<svg width="35px" height="51px" viewBox="0 0 35 51" version="1.1" xmlns="http://www.w3.org/2000/svg" xmlns:xlink="http://www.w3.org/1999/xlink">
    <!-- Generator: Sketch 63.1 (92452) - https://sketch.com -->
    <title>noun_receipt_174260</title>
    <desc>Created with Sketch.</desc>
    <g id="Diseño-Desktop" stroke="none" stroke-width="1" fill="none" fill-rule="evenodd">
        <g id="moonk_producto01" transform="translate(-293.000000, -714.000000)" fill="#00A4DC" fill-rule="nonzero">
            <g id="noun_receipt_174260" transform="translate(293.000000, 714.000000)">
                <g id="Group">
                    <path d="M12.0342208,0.288457397 C11.8599476,0.311505853 11.6984249,0.392128338 11.57541,0.517468356 L6.200768,5.88159247 C6.00128742,6.08015402 5.92322368,6.36991282 5.99602989,6.64154416 C6.06883609,6.91317551 6.28143003,7.12533302 6.55360099,7.19797064 C6.82577194,7.27060825 7.11609138,7.19266943 7.3150231,6.99356014 L12.1325372,2.18552466 L16.9172794,6.99356014 C17.0649168,7.14125959 17.2653673,7.22426584 17.4744069,7.22426584 C17.6834466,7.22426584 17.8838971,7.14125959 18.0315345,6.99356014 L22.8490486,2.18552466 L27.6337908,6.99356014 C27.9415781,7.29992941 28.4398318,7.29961081 28.7472255,6.99284817 C29.0546192,6.68608553 29.0549863,6.18880686 28.7480459,5.88159247 L23.4061765,0.517468356 C23.2585391,0.369768904 23.0580886,0.28676265 22.8490489,0.28676265 C22.6400093,0.28676265 22.4395588,0.369768904 22.2919214,0.517468356 L17.4744073,5.32550384 L12.6896651,0.517468356 C12.5185705,0.343846702 12.2764603,0.259253879 12.0342208,0.288457397 L12.0342208,0.288457397 Z" id="Path"></path>
                    <path d="M33.4016991,0.288457397 C33.2508642,0.324452072 33.114048,0.404124313 33.0084328,0.517468356 L27.6337908,5.88159247 C27.4343102,6.08015402 27.3562465,6.36991282 27.4290527,6.64154416 C27.5018589,6.91317551 27.7144528,7.12533302 27.9866238,7.19797064 C28.2587947,7.27060825 28.5491142,7.19266943 28.7480459,6.99356014 L34.1226879,1.62943603 C34.3874691,1.38672007 34.4537766,0.99577245 34.2837861,0.679604461 C34.1137956,0.363436472 33.7507315,0.202441598 33.4016991,0.288457397 L33.4016991,0.288457397 Z" id="Path"></path>
                    <path d="M1.2521649,0.288457397 C0.962483069,0.344012632 0.728256161,0.556586615 0.645393291,0.839136477 C0.56253042,1.12168634 0.644948067,1.42675898 0.8588986,1.62943603 L6.200768,6.99356014 C6.39969972,7.19266943 6.69001916,7.27060825 6.96219011,7.19797064 C7.23436107,7.12533302 7.44695501,6.91317551 7.51976121,6.64154416 C7.59256742,6.36991282 7.51450368,6.08015402 7.3150231,5.88159247 L1.9731537,0.517468356 C1.78777141,0.323268933 1.51590932,0.236916137 1.2521649,0.288457397 L1.2521649,0.288457397 Z" id="Path"></path>
                    <path d="M1.2521649,0.288457397 C0.88274526,0.36707198 0.621394243,0.696554094 0.6294932,1.07345219 L0.6294932,49.7430945 C0.620007568,50.029728 0.767810716,50.2987343 1.01506865,50.4448538 C1.26232658,50.5909734 1.56972572,50.5909734 1.81698365,50.4448538 C2.06424158,50.2987343 2.21204473,50.029728 2.2025591,49.7430945 L2.2025591,1.07345219 C2.20768052,0.833610332 2.10269476,0.604583475 1.9175177,0.451633226 C1.73234064,0.298682978 1.48727951,0.238582451 1.2521649,0.288457397 L1.2521649,0.288457397 Z" id="Path"></path>
                    <path d="M33.5327881,0.255803425 C33.1113863,0.290765619 32.7929954,0.651841898 32.8117993,1.07345219 L32.8117993,49.7103986 C32.8023137,49.9970321 32.9501168,50.2660384 33.1973747,50.4121579 C33.4446327,50.5582775 33.7520318,50.5582775 33.9992898,50.4121579 C34.2465477,50.2660384 34.3943508,49.9970321 34.3848652,49.7103986 L34.3848652,1.07345219 C34.3949444,0.847840182 34.3072307,0.628815054 34.1441163,0.472291293 C33.9810018,0.315767532 33.7582724,0.236893002 33.5327881,0.255803425 L33.5327881,0.255803425 Z" id="Path"></path>
                    <path d="M6.7251233,43.5612658 C6.40931711,43.5853926 6.13877979,43.7961228 6.03861489,44.0960093 C5.93845,44.3958958 6.02818044,44.7264884 6.2663125,44.9349123 L11.6081819,50.2663685 C11.7558193,50.4140679 11.9562698,50.4970742 12.1653095,50.4970742 C12.3743491,50.4970742 12.5747996,50.4140679 12.722437,50.2663685 L17.5399511,45.4910219 L22.3246933,50.2663685 C22.4723307,50.4140679 22.6727812,50.4970742 22.8818209,50.4970742 C23.0908605,50.4970742 23.291311,50.4140679 23.4389484,50.2663685 L28.8135904,44.9349123 C29.014337,44.7366069 29.0933607,44.4462225 29.0207133,44.173808 C28.9480659,43.9013935 28.7348644,43.6886349 28.4619069,43.6161627 C28.1889494,43.5436905 27.8980052,43.6225948 27.6993353,43.8229726 L22.8818212,48.5982493 L18.097079,43.8229726 C17.9494416,43.6752732 17.7489911,43.5922669 17.5399514,43.5922669 C17.3309118,43.5922669 17.1304613,43.6752732 16.9828239,43.8229726 L12.1653098,48.5982493 L7.3805676,43.8229726 C7.21574563,43.6373406 6.97275255,43.540318 6.7251233,43.5612658 L6.7251233,43.5612658 Z" id="Path"></path>
                    <path d="M28.1581461,43.5612658 C27.8423399,43.5853926 27.5718026,43.7961228 27.4716377,44.0960093 C27.3714728,44.3958958 27.4612032,44.7264884 27.6993353,44.9349123 L33.0412047,50.2663685 C33.3488991,50.5734594 33.8477692,50.5734583 34.1554622,50.266366 C34.4631553,49.9592738 34.4631542,49.46138 34.1554598,49.154289 L28.8135904,43.8229726 C28.6487684,43.6373406 28.4057754,43.540318 28.1581461,43.5612658 L28.1581461,43.5612658 Z" id="Path"></path>
                    <path d="M6.7906678,43.5612658 C6.58863339,43.5778424 6.40080084,43.67159 6.2663125,43.8229726 L0.8916705,49.154289 C0.583976097,49.46138 0.583975,49.9592738 0.89166805,50.266366 C1.1993611,50.5734583 1.6982312,50.5734594 2.0059256,50.2663685 L7.3805676,44.9349123 C7.63758164,44.7108561 7.7206202,44.3470103 7.58618589,44.0339652 C7.45175158,43.7209201 7.1304831,43.5300213 6.7906678,43.5612658 L6.7906678,43.5612658 Z" id="Path"></path>
                    <path d="M9.5435333,15.1706836 C9.10914257,15.1887468 8.77167115,15.5548441 8.7897698,15.9883847 C8.80786845,16.4219254 9.17468357,16.7587364 9.6090743,16.7406732 L25.3397333,16.7406732 C25.6269216,16.7501284 25.8964434,16.6026116 26.0428422,16.3558421 C26.189241,16.1090726 26.189241,15.8022841 26.0428422,15.5555146 C25.8964434,15.3087451 25.6269216,15.1612283 25.3397333,15.1706836 L9.6090743,15.1706836 C9.58723678,15.1697752 9.56537082,15.1697752 9.5435333,15.1706836 Z" id="Path"></path>
                    <path d="M9.5435333,21.4506349 C9.10914257,21.4686982 8.77167115,21.8347954 8.7897698,22.2683361 C8.80786845,22.7018767 9.17468357,23.0386877 9.6090743,23.0206245 L25.3397333,23.0206245 C25.6269216,23.0300797 25.8964434,22.882563 26.0428422,22.6357935 C26.189241,22.389024 26.189241,22.0822355 26.0428422,21.835466 C25.8964434,21.5886965 25.6269216,21.4411797 25.3397333,21.4506349 L9.6090743,21.4506349 C9.58723678,21.4497266 9.56537082,21.4497266 9.5435333,21.4506349 Z" id="Path"></path>
                    <path d="M9.5435333,27.7305863 C9.26139317,27.7406991 9.00628262,27.9008286 8.87494356,28.1502511 C8.74360449,28.3996735 8.75615022,28.7001924 8.9078232,28.9378462 C9.05949618,29.1755 9.32706916,29.3138943 9.6090743,29.3005479 L25.3397333,29.3005479 C25.627017,29.3101599 25.8966974,29.1626813 26.0431916,28.9158514 C26.1896859,28.6690216 26.1896859,28.3621126 26.0431916,28.1152828 C25.8966974,27.868453 25.627017,27.7209743 25.3397333,27.7305863 L9.6090743,27.7305863 C9.58723678,27.7296779 9.56537082,27.7296779 9.5435333,27.7305863 L9.5435333,27.7305863 Z" id="Path"></path>
                    <path d="M9.5435333,34.0105027 C9.26252422,34.0221875 9.00910711,34.1826079 8.87874178,34.4313351 C8.74837645,34.6800623 8.76086849,34.9793087 8.91151228,35.216351 C9.06215607,35.4533933 9.32806522,35.5922192 9.6090743,35.5805342 L15.9013379,35.5805342 C16.1883798,35.5897496 16.4576589,35.4421747 16.6039117,35.1954976 C16.7501645,34.9488205 16.7501645,34.6422165 16.6039117,34.3955394 C16.4576589,34.1488623 16.1883798,34.0012874 15.9013379,34.0105027 L9.6090743,34.0105027 C9.58723678,34.0095944 9.56537082,34.0095944 9.5435333,34.0105027 Z" id="Path"></path>
                </g>
            </g>
        </g>
    </g>
</svg>